<?xml version="1.0" encoding="utf-8"?>
<!-- Generator: Adobe Illustrator 26.0.2, SVG Export Plug-In . SVG Version: 6.00 Build 0)  -->
<svg version="1.1" id="Layer_1" xmlns="http://www.w3.org/2000/svg" xmlns:xlink="http://www.w3.org/1999/xlink" x="0px" y="0px"
	 viewBox="0 0 612 792" style="enable-background:new 0 0 612 792;" xml:space="preserve">
<style type="text/css">
	.st0{fill:#FFFFFF;}
	.st1{opacity:0.63;fill:url(#SVGID_1_);}
	.st2{opacity:0.63;fill:url(#SVGID_00000008148067568543713820000002516785735909495437_);}
	.st3{opacity:0.63;fill:url(#SVGID_00000158020656670396775750000011130508927484523146_);}
	.st4{opacity:0.63;fill:url(#SVGID_00000058571494411414874490000001585758484819462798_);}
	.st5{opacity:0.63;fill:url(#SVGID_00000037664604453203901890000015866407143967416719_);}
	.st6{opacity:0.63;fill:url(#SVGID_00000104665757497807869100000010724043092794393747_);}
	.st7{opacity:0.63;fill:url(#SVGID_00000157305022969765999120000017656538090853631637_);}
	.st8{opacity:0.63;fill:url(#SVGID_00000175308947320905968050000003968836205707614361_);}
	.st9{opacity:0.63;fill:url(#SVGID_00000132060794107328591640000004002619634326555301_);}
	.st10{opacity:0.63;fill:url(#SVGID_00000106106971073199767640000001072930109905529271_);}
	.st11{opacity:0.63;fill:url(#SVGID_00000111870780857539164360000002347855096273914008_);}
	.st12{opacity:0.63;fill:url(#SVGID_00000052815329667689343600000014629451810456203171_);}
	.st13{opacity:0.63;fill:url(#SVGID_00000018920794115908667670000012223204487840993442_);}
	.st14{opacity:0.63;fill:url(#SVGID_00000086685518200828375950000002193466844226556349_);}
	.st15{opacity:0.63;fill:url(#SVGID_00000123439815889969683370000002116157813132487861_);}
	.st16{opacity:0.63;fill:url(#SVGID_00000062176276662610614210000012093090843662017708_);}
	.st17{opacity:0.63;fill:url(#SVGID_00000173849936042862455440000003946302222041804449_);}
	.st18{opacity:0.63;fill:url(#SVGID_00000059299945226363035150000004364618417632249749_);}
	.st19{opacity:0.63;fill:url(#SVGID_00000105386120517286787340000002162607643520385413_);}
	.st20{opacity:0.63;fill:url(#SVGID_00000051357439776859925510000004912862924844194992_);}
	.st21{opacity:0.63;fill:url(#SVGID_00000090986727746282662620000009603900462921385380_);}
	.st22{opacity:0.63;fill:url(#SVGID_00000120542390749343165500000002770617949922050452_);}
	.st23{opacity:0.63;fill:url(#SVGID_00000051376896678414561520000017484736501567705729_);}
	.st24{opacity:0.63;fill:url(#SVGID_00000178898129760872167730000010660694033212564156_);}
	.st25{opacity:0.63;fill:url(#SVGID_00000017479326177994685670000001026620601698606253_);}
	.st26{opacity:0.63;fill:url(#SVGID_00000103265121466079379710000009732192928858417590_);}
	.st27{opacity:0.63;fill:url(#SVGID_00000017502637246425518580000005379089372898996408_);}
	.st28{opacity:0.63;fill:url(#SVGID_00000127044824538603681030000009178471804231444366_);}
	.st29{opacity:0.63;fill:url(#SVGID_00000176027844045303600210000015742951261673166781_);}
	.st30{opacity:0.63;fill:url(#SVGID_00000042710810663672204350000016869007580708319662_);}
	.st31{opacity:0.25;fill:url(#SVGID_00000087404679665839105880000015583328573947555767_);}
	.st32{opacity:0.25;fill:url(#SVGID_00000176734395922215615280000013999867173031349183_);}
	.st33{opacity:0.25;fill:url(#SVGID_00000146498298359308383700000007231319019224318872_);}
	.st34{opacity:0.25;fill:url(#SVGID_00000130611778749055962460000005438328414211720323_);}
	.st35{opacity:0.25;fill:url(#SVGID_00000028303727722500095730000014698084850922485646_);}
	.st36{opacity:0.25;fill:url(#SVGID_00000060016375482025729840000001675211422508942208_);}
	.st37{opacity:0.25;fill:url(#SVGID_00000037674281089963546670000012065589010291128193_);}
	.st38{opacity:0.25;fill:url(#SVGID_00000048490032287299053190000018417658155131256724_);}
</style>
<g>
	<path class="st0" d="M305.2,449.8c0,0-0.1,6.6,2.8,6.5c0,0-2.9,0-2.8,3.3c0,0-0.2-3.3-3.1-3.2C302.2,456.3,305.1,456.4,305.2,449.8
		z"/>
	
		<radialGradient id="SVGID_1_" cx="-494.5175" cy="1564.9141" r="38.6926" gradientTransform="matrix(0.2549 -1.000000e-03 4.000000e-04 8.710000e-02 430.5547 319.2746)" gradientUnits="userSpaceOnUse">
		<stop  offset="3.631280e-02" style="stop-color:#F4E600"/>
		<stop  offset="0.1339" style="stop-color:#BFB529"/>
		<stop  offset="0.3126" style="stop-color:#767135"/>
		<stop  offset="0.4837" style="stop-color:#45442D"/>
		<stop  offset="0.6425" style="stop-color:#24261F"/>
		<stop  offset="0.7864" style="stop-color:#0F1211"/>
		<stop  offset="0.9103" style="stop-color:#040506"/>
		<stop  offset="1" style="stop-color:#020203"/>
	</radialGradient>
	<path class="st1" d="M315.5,456.1c0,1.8-4.5,3.2-10.2,3.2s-10.3-1.4-10.5-3.1c-0.2-1.8,4.4-3.3,10.1-3.3
		C310.7,452.8,315.4,454.3,315.5,456.1z"/>
	
		<radialGradient id="SVGID_00000183221443763029070720000018210347651892393890_" cx="2364.7881" cy="-12532.666" r="38.6952" gradientTransform="matrix(-1.600000e-03 -0.383 8.710000e-02 -4.000000e-04 1400.507 1356.7739)" gradientUnits="userSpaceOnUse">
		<stop  offset="3.631280e-02" style="stop-color:#F4E600"/>
		<stop  offset="0.1339" style="stop-color:#BFB529"/>
		<stop  offset="0.3126" style="stop-color:#767135"/>
		<stop  offset="0.4837" style="stop-color:#45442D"/>
		<stop  offset="0.6425" style="stop-color:#24261F"/>
		<stop  offset="0.7864" style="stop-color:#0F1211"/>
		<stop  offset="0.9103" style="stop-color:#040506"/>
		<stop  offset="1" style="stop-color:#020203"/>
	</radialGradient>
	<path style="opacity:0.63;fill:url(#SVGID_00000183221443763029070720000018210347651892393890_);" d="M305.1,440.6
		c1.8,0,3.2,6.8,3.2,15.3c0,8.4-1.3,15.5-3.1,15.8c-1.8,0.3-3.3-6.6-3.3-15.3C301.9,447.6,303.3,440.6,305.1,440.6z"/>
	
		<radialGradient id="SVGID_00000026135655215155928650000002507670298117909691_" cx="3672.4919" cy="-60933.1367" r="38.6492" gradientTransform="matrix(-0.1915 -0.3317 1.400000e-02 -8.100000e-03 1861.4742 1180.6803)" gradientUnits="userSpaceOnUse">
		<stop  offset="3.631280e-02" style="stop-color:#F4E600"/>
		<stop  offset="0.1339" style="stop-color:#BFB529"/>
		<stop  offset="0.3126" style="stop-color:#767135"/>
		<stop  offset="0.4837" style="stop-color:#45442D"/>
		<stop  offset="0.6425" style="stop-color:#24261F"/>
		<stop  offset="0.7864" style="stop-color:#0F1211"/>
		<stop  offset="0.9103" style="stop-color:#040506"/>
		<stop  offset="1" style="stop-color:#020203"/>
	</radialGradient>
	<path style="opacity:0.63;fill:url(#SVGID_00000026135655215155928650000002507670298117909691_);" d="M297.4,442.6
		c0.3-0.2,3.9,5.6,8.1,12.9c4.2,7.3,7.5,13.6,7.4,13.9c-0.2,0.4-3.8-5.4-8.2-12.9C300.4,449.1,297.1,442.8,297.4,442.6z"/>
	
		<radialGradient id="SVGID_00000040546927341306143920000010880718069626837376_" cx="1127.2745" cy="-38842.7852" r="38.7122" gradientTransform="matrix(0.2154 -0.3167 1.330000e-02 9.100000e-03 578.9222 1166.5504)" gradientUnits="userSpaceOnUse">
		<stop  offset="3.631280e-02" style="stop-color:#F4E600"/>
		<stop  offset="0.1339" style="stop-color:#BFB529"/>
		<stop  offset="0.3126" style="stop-color:#767135"/>
		<stop  offset="0.4837" style="stop-color:#45442D"/>
		<stop  offset="0.6425" style="stop-color:#24261F"/>
		<stop  offset="0.7864" style="stop-color:#0F1211"/>
		<stop  offset="0.9103" style="stop-color:#040506"/>
		<stop  offset="1" style="stop-color:#020203"/>
	</radialGradient>
	<path style="opacity:0.63;fill:url(#SVGID_00000040546927341306143920000010880718069626837376_);" d="M313.9,443.2
		c0.3,0.2-3.4,6-8.1,13c-4.8,7-8.9,12.7-9.3,12.7c-0.4,0,3.2-5.8,8.1-13S313.6,443.1,313.9,443.2z"/>
	
		<radialGradient id="SVGID_00000085244091530950995800000006469246805239655812_" cx="-391.1174" cy="16817.4043" r="38.7337" gradientTransform="matrix(0.2623 -1.100000e-03 1.000000e-04 1.610000e-02 406.0372 185.0854)" gradientUnits="userSpaceOnUse">
		<stop  offset="3.631280e-02" style="stop-color:#F4E600"/>
		<stop  offset="0.1339" style="stop-color:#BFB529"/>
		<stop  offset="0.3126" style="stop-color:#767135"/>
		<stop  offset="0.4837" style="stop-color:#45442D"/>
		<stop  offset="0.6425" style="stop-color:#24261F"/>
		<stop  offset="0.7864" style="stop-color:#0F1211"/>
		<stop  offset="0.9103" style="stop-color:#040506"/>
		<stop  offset="1" style="stop-color:#020203"/>
	</radialGradient>
	<path style="opacity:0.63;fill:url(#SVGID_00000085244091530950995800000006469246805239655812_);" d="M315.8,456.2
		c0,0.3-4.7,0.6-10.5,0.6c-5.8,0-10.6-0.2-10.8-0.5c-0.2-0.3,4.5-0.6,10.5-0.6C310.9,455.7,315.7,455.9,315.8,456.2z"/>
	
		<radialGradient id="SVGID_00000114071066489654784240000003198750215446736564_" cx="2368.8328" cy="-59484.3125" r="38.7317" gradientTransform="matrix(-1.600000e-03 -0.383 1.610000e-02 -1.000000e-04 1266.7677 1357.3871)" gradientUnits="userSpaceOnUse">
		<stop  offset="3.631280e-02" style="stop-color:#F4E600"/>
		<stop  offset="0.1339" style="stop-color:#BFB529"/>
		<stop  offset="0.3126" style="stop-color:#767135"/>
		<stop  offset="0.4837" style="stop-color:#45442D"/>
		<stop  offset="0.6425" style="stop-color:#24261F"/>
		<stop  offset="0.7864" style="stop-color:#0F1211"/>
		<stop  offset="0.9103" style="stop-color:#040506"/>
		<stop  offset="1" style="stop-color:#020203"/>
	</radialGradient>
	<path style="opacity:0.63;fill:url(#SVGID_00000114071066489654784240000003198750215446736564_);" d="M305.2,440.6
		c0.3,0,0.6,6.8,0.6,15.3c0,8.4-0.2,15.5-0.5,15.7c-0.3,0.3-0.6-6.6-0.7-15.3C304.7,447.6,304.9,440.6,305.2,440.6z"/>
</g>
<g>
	<path class="st0" d="M375.8,423.8c0,0,2.9,5.9,5.5,4.5c0,0-2.6,1.4-0.9,4.2c0,0-1.7-2.8-4.2-1.4C376.1,431,378.7,429.7,375.8,423.8
		z"/>
	
		<radialGradient id="SVGID_00000154402041019738796170000000518334014310201496_" cx="3980.4568" cy="-9819.417" r="38.6952" gradientTransform="matrix(0.2253 -0.1192 4.070000e-02 7.700000e-02 -118.5491 1660.0273)" gradientUnits="userSpaceOnUse">
		<stop  offset="3.631280e-02" style="stop-color:#F4E600"/>
		<stop  offset="0.1339" style="stop-color:#BFB529"/>
		<stop  offset="0.3126" style="stop-color:#767135"/>
		<stop  offset="0.4837" style="stop-color:#45442D"/>
		<stop  offset="0.6425" style="stop-color:#24261F"/>
		<stop  offset="0.7864" style="stop-color:#0F1211"/>
		<stop  offset="0.9103" style="stop-color:#040506"/>
		<stop  offset="1" style="stop-color:#020203"/>
	</radialGradient>
	<path style="opacity:0.63;fill:url(#SVGID_00000154402041019738796170000000518334014310201496_);" d="M387.7,424.7
		c0.8,1.5-2.5,4.9-7.5,7.5c-5,2.6-9.8,3.6-10.7,2.1c-1-1.5,2.4-4.9,7.5-7.6C382.1,424,386.9,423.1,387.7,424.7z"/>
	
		<radialGradient id="SVGID_00000067206038112158644000000002345336688114772360_" cx="4956.2139" cy="555.9976" r="38.6988" gradientTransform="matrix(-0.1791 -0.3385 7.700000e-02 -4.070000e-02 1223.4436 2129.7693)" gradientUnits="userSpaceOnUse">
		<stop  offset="3.631280e-02" style="stop-color:#F4E600"/>
		<stop  offset="0.1339" style="stop-color:#BFB529"/>
		<stop  offset="0.3126" style="stop-color:#767135"/>
		<stop  offset="0.4837" style="stop-color:#45442D"/>
		<stop  offset="0.6425" style="stop-color:#24261F"/>
		<stop  offset="0.7864" style="stop-color:#0F1211"/>
		<stop  offset="0.9103" style="stop-color:#040506"/>
		<stop  offset="1" style="stop-color:#020203"/>
	</radialGradient>
	<path style="opacity:0.63;fill:url(#SVGID_00000067206038112158644000000002345336688114772360_);" d="M371.4,415.7
		c1.5-0.8,6,4.6,9.9,12c4,7.5,6,14.4,4.6,15.4c-1.5,1.1-6-4.3-10-12C371.8,423.5,369.8,416.6,371.4,415.7z"/>
	
		<radialGradient id="SVGID_00000047029700246014912870000005735142263015903405_" cx="4440.1655" cy="30860.3906" r="38.7409" gradientTransform="matrix(-0.3235 -0.205 8.600000e-03 -1.360000e-02 1549.5917 1759.3971)" gradientUnits="userSpaceOnUse">
		<stop  offset="3.631280e-02" style="stop-color:#F4E600"/>
		<stop  offset="0.1339" style="stop-color:#BFB529"/>
		<stop  offset="0.3126" style="stop-color:#767135"/>
		<stop  offset="0.4837" style="stop-color:#45442D"/>
		<stop  offset="0.6425" style="stop-color:#24261F"/>
		<stop  offset="0.7864" style="stop-color:#0F1211"/>
		<stop  offset="0.9103" style="stop-color:#040506"/>
		<stop  offset="1" style="stop-color:#020203"/>
	</radialGradient>
	<path style="opacity:0.63;fill:url(#SVGID_00000047029700246014912870000005735142263015903405_);" d="M365.5,421.2
		c0.2-0.3,6.1,3.2,13.2,7.7c7.1,4.5,13,8.5,13,8.9c0,0.4-5.9-3-13.2-7.7C371.1,425.4,365.3,421.4,365.5,421.2z"/>
	
		<radialGradient id="SVGID_00000114794502165707561240000003584488045536598682_" cx="4951.3267" cy="-15293.9541" r="38.7289" gradientTransform="matrix(4.380000e-02 -0.3805 1.600000e-02 1.800000e-03 406.4327 2340.9707)" gradientUnits="userSpaceOnUse">
		<stop  offset="3.631280e-02" style="stop-color:#F4E600"/>
		<stop  offset="0.1339" style="stop-color:#BFB529"/>
		<stop  offset="0.3126" style="stop-color:#767135"/>
		<stop  offset="0.4837" style="stop-color:#45442D"/>
		<stop  offset="0.6425" style="stop-color:#24261F"/>
		<stop  offset="0.7864" style="stop-color:#0F1211"/>
		<stop  offset="0.9103" style="stop-color:#040506"/>
		<stop  offset="1" style="stop-color:#020203"/>
	</radialGradient>
	<path style="opacity:0.63;fill:url(#SVGID_00000114794502165707561240000003584488045536598682_);" d="M380.4,414
		c0.3,0-0.2,6.9-1.2,15.2c-1,8.4-2,15.4-2.4,15.6c-0.4,0.2,0.2-6.6,1.1-15.2C379,421,380.1,414,380.4,414z"/>
	
		<radialGradient id="SVGID_00000047758199498694966970000000074910975319385777_" cx="3948.177" cy="-44688.9531" r="38.6769" gradientTransform="matrix(0.2319 -0.1227 7.500000e-03 1.430000e-02 -201.7229 1553.1344)" gradientUnits="userSpaceOnUse">
		<stop  offset="3.631280e-02" style="stop-color:#F4E600"/>
		<stop  offset="0.1339" style="stop-color:#BFB529"/>
		<stop  offset="0.3126" style="stop-color:#767135"/>
		<stop  offset="0.4837" style="stop-color:#45442D"/>
		<stop  offset="0.6425" style="stop-color:#24261F"/>
		<stop  offset="0.7864" style="stop-color:#0F1211"/>
		<stop  offset="0.9103" style="stop-color:#040506"/>
		<stop  offset="1" style="stop-color:#020203"/>
	</radialGradient>
	<path style="opacity:0.63;fill:url(#SVGID_00000047758199498694966970000000074910975319385777_);" d="M388.1,424.7
		c0.2,0.3-3.9,2.7-9,5.4c-5.1,2.7-9.5,4.7-9.8,4.5c-0.3-0.2,3.7-2.6,9-5.4C383.5,426.4,387.9,424.4,388.1,424.7z"/>
	
		<radialGradient id="SVGID_00000042002717172991273860000006060770289450128258_" cx="4958.3467" cy="11265.1396" r="38.6816" gradientTransform="matrix(-0.1791 -0.3385 1.430000e-02 -7.500000e-03 1105.6803 2192.2795)" gradientUnits="userSpaceOnUse">
		<stop  offset="3.631280e-02" style="stop-color:#F4E600"/>
		<stop  offset="0.1339" style="stop-color:#BFB529"/>
		<stop  offset="0.3126" style="stop-color:#767135"/>
		<stop  offset="0.4837" style="stop-color:#45442D"/>
		<stop  offset="0.6425" style="stop-color:#24261F"/>
		<stop  offset="0.7864" style="stop-color:#0F1211"/>
		<stop  offset="0.9103" style="stop-color:#040506"/>
		<stop  offset="1" style="stop-color:#020203"/>
	</radialGradient>
	<path style="opacity:0.63;fill:url(#SVGID_00000042002717172991273860000006060770289450128258_);" d="M371.5,415.7
		c0.3-0.2,3.7,5.8,7.7,13.2c4,7.5,7,13.8,6.8,14.2c-0.2,0.4-3.6-5.5-7.7-13.2C374.3,422.2,371.2,415.8,371.5,415.7z"/>
</g>
<g>
	<path class="st0" d="M191,424c0,0-0.1,6.6,2.8,6.5c0,0-2.9,0-2.8,3.3c0,0-0.2-3.3-3.1-3.2C188,430.5,190.9,430.6,191,424z"/>
	
		<radialGradient id="SVGID_00000054240182136777805170000016125707861386803126_" cx="-942.211" cy="1263.4905" r="38.6927" gradientTransform="matrix(0.2549 -1.000000e-03 4.000000e-04 8.710000e-02 430.5547 319.2746)" gradientUnits="userSpaceOnUse">
		<stop  offset="3.631280e-02" style="stop-color:#F4E600"/>
		<stop  offset="0.1339" style="stop-color:#BFB529"/>
		<stop  offset="0.3126" style="stop-color:#767135"/>
		<stop  offset="0.4837" style="stop-color:#45442D"/>
		<stop  offset="0.6425" style="stop-color:#24261F"/>
		<stop  offset="0.7864" style="stop-color:#0F1211"/>
		<stop  offset="0.9103" style="stop-color:#040506"/>
		<stop  offset="1" style="stop-color:#020203"/>
	</radialGradient>
	<path style="opacity:0.63;fill:url(#SVGID_00000054240182136777805170000016125707861386803126_);" d="M201.2,430.3
		c0,1.8-4.5,3.2-10.2,3.2c-5.6,0-10.3-1.4-10.5-3.1c-0.2-1.8,4.4-3.3,10.1-3.3C196.5,427,201.2,428.5,201.2,430.3z"/>
	
		<radialGradient id="SVGID_00000069378554889907558570000008387306280607200133_" cx="2433.5359" cy="-13842.9707" r="38.6952" gradientTransform="matrix(-1.600000e-03 -0.383 8.710000e-02 -4.000000e-04 1400.507 1356.7739)" gradientUnits="userSpaceOnUse">
		<stop  offset="3.631280e-02" style="stop-color:#F4E600"/>
		<stop  offset="0.1339" style="stop-color:#BFB529"/>
		<stop  offset="0.3126" style="stop-color:#767135"/>
		<stop  offset="0.4837" style="stop-color:#45442D"/>
		<stop  offset="0.6425" style="stop-color:#24261F"/>
		<stop  offset="0.7864" style="stop-color:#0F1211"/>
		<stop  offset="0.9103" style="stop-color:#040506"/>
		<stop  offset="1" style="stop-color:#020203"/>
	</radialGradient>
	<path style="opacity:0.63;fill:url(#SVGID_00000069378554889907558570000008387306280607200133_);" d="M190.9,414.8
		c1.8,0,3.2,6.8,3.2,15.3c0,8.4-1.3,15.5-3.1,15.8c-1.8,0.3-3.3-6.6-3.3-15.3C187.7,421.8,189.1,414.8,190.9,414.8z"/>
	
		<radialGradient id="SVGID_00000072242504666230431150000000161622852931205044_" cx="3880.1792" cy="-66252.1016" r="38.6505" gradientTransform="matrix(-0.1915 -0.3317 1.400000e-02 -8.100000e-03 1861.4742 1180.6803)" gradientUnits="userSpaceOnUse">
		<stop  offset="3.631280e-02" style="stop-color:#F4E600"/>
		<stop  offset="0.1339" style="stop-color:#BFB529"/>
		<stop  offset="0.3126" style="stop-color:#767135"/>
		<stop  offset="0.4837" style="stop-color:#45442D"/>
		<stop  offset="0.6425" style="stop-color:#24261F"/>
		<stop  offset="0.7864" style="stop-color:#0F1211"/>
		<stop  offset="0.9103" style="stop-color:#040506"/>
		<stop  offset="1" style="stop-color:#020203"/>
	</radialGradient>
	<path style="opacity:0.63;fill:url(#SVGID_00000072242504666230431150000000161622852931205044_);" d="M183.1,416.8
		c0.3-0.2,3.9,5.6,8.1,12.9c4.2,7.3,7.5,13.6,7.4,13.9c-0.2,0.4-3.8-5.4-8.2-12.9C186.2,423.2,182.9,417,183.1,416.8z"/>
	
		<radialGradient id="SVGID_00000163764180706460768130000002582674714693367212_" cx="1014.4571" cy="-45604.9414" r="38.7122" gradientTransform="matrix(0.2154 -0.3167 1.330000e-02 9.100000e-03 578.9222 1166.5504)" gradientUnits="userSpaceOnUse">
		<stop  offset="3.631280e-02" style="stop-color:#F4E600"/>
		<stop  offset="0.1339" style="stop-color:#BFB529"/>
		<stop  offset="0.3126" style="stop-color:#767135"/>
		<stop  offset="0.4837" style="stop-color:#45442D"/>
		<stop  offset="0.6425" style="stop-color:#24261F"/>
		<stop  offset="0.7864" style="stop-color:#0F1211"/>
		<stop  offset="0.9103" style="stop-color:#040506"/>
		<stop  offset="1" style="stop-color:#020203"/>
	</radialGradient>
	<path style="opacity:0.63;fill:url(#SVGID_00000163764180706460768130000002582674714693367212_);" d="M199.6,417.4
		c0.3,0.2-3.4,6-8.1,13c-4.8,7-8.9,12.7-9.3,12.7c-0.4,0,3.2-5.8,8.1-13C195.2,422.9,199.3,417.3,199.6,417.4z"/>
	
		<radialGradient id="SVGID_00000183943313232793927400000012509321352058946707_" cx="-826.0179" cy="15184.8145" r="38.7338" gradientTransform="matrix(0.2623 -1.100000e-03 1.000000e-04 1.610000e-02 406.0372 185.0854)" gradientUnits="userSpaceOnUse">
		<stop  offset="3.631280e-02" style="stop-color:#F4E600"/>
		<stop  offset="0.1339" style="stop-color:#BFB529"/>
		<stop  offset="0.3126" style="stop-color:#767135"/>
		<stop  offset="0.4837" style="stop-color:#45442D"/>
		<stop  offset="0.6425" style="stop-color:#24261F"/>
		<stop  offset="0.7864" style="stop-color:#0F1211"/>
		<stop  offset="0.9103" style="stop-color:#040506"/>
		<stop  offset="1" style="stop-color:#020203"/>
	</radialGradient>
	<path style="opacity:0.63;fill:url(#SVGID_00000183943313232793927400000012509321352058946707_);" d="M201.5,430.4
		c0,0.3-4.7,0.6-10.5,0.6c-5.8,0-10.6-0.2-10.8-0.5c-0.2-0.3,4.5-0.6,10.5-0.6C196.7,429.9,201.5,430.1,201.5,430.4z"/>
	
		<radialGradient id="SVGID_00000145025609880633780720000002076029608588340125_" cx="2438.063" cy="-66572.9375" r="38.7303" gradientTransform="matrix(-1.600000e-03 -0.383 1.610000e-02 -1.000000e-04 1266.7677 1357.3871)" gradientUnits="userSpaceOnUse">
		<stop  offset="3.631280e-02" style="stop-color:#F4E600"/>
		<stop  offset="0.1339" style="stop-color:#BFB529"/>
		<stop  offset="0.3126" style="stop-color:#767135"/>
		<stop  offset="0.4837" style="stop-color:#45442D"/>
		<stop  offset="0.6425" style="stop-color:#24261F"/>
		<stop  offset="0.7864" style="stop-color:#0F1211"/>
		<stop  offset="0.9103" style="stop-color:#040506"/>
		<stop  offset="1" style="stop-color:#020203"/>
	</radialGradient>
	<path style="opacity:0.63;fill:url(#SVGID_00000145025609880633780720000002076029608588340125_);" d="M191,414.8
		c0.3,0,0.6,6.8,0.6,15.3c0,8.4-0.2,15.5-0.5,15.7c-0.3,0.3-0.6-6.6-0.7-15.3C190.4,421.8,190.7,414.8,191,414.8z"/>
</g>
<g>
	<path class="st0" d="M266.2,338.8c0,0-0.1,6.6,2.8,6.5c0,0-2.9,0-2.8,3.3c0,0-0.2-3.3-3.1-3.2C263.2,345.4,266.1,345.4,266.2,338.8
		z"/>
	
		<radialGradient id="SVGID_00000067208326465050366850000010106555870783018131_" cx="-645.5616" cy="289.0652" r="38.6926" gradientTransform="matrix(0.2549 -1.000000e-03 4.000000e-04 8.710000e-02 430.5547 319.2746)" gradientUnits="userSpaceOnUse">
		<stop  offset="3.631280e-02" style="stop-color:#F4E600"/>
		<stop  offset="0.1339" style="stop-color:#BFB529"/>
		<stop  offset="0.3126" style="stop-color:#767135"/>
		<stop  offset="0.4837" style="stop-color:#45442D"/>
		<stop  offset="0.6425" style="stop-color:#24261F"/>
		<stop  offset="0.7864" style="stop-color:#0F1211"/>
		<stop  offset="0.9103" style="stop-color:#040506"/>
		<stop  offset="1" style="stop-color:#020203"/>
	</radialGradient>
	<path style="opacity:0.63;fill:url(#SVGID_00000067208326465050366850000010106555870783018131_);" d="M276.4,345.1
		c0,1.8-4.5,3.2-10.2,3.2c-5.6,0-10.3-1.4-10.5-3.1c-0.2-1.8,4.4-3.3,10.1-3.3S276.4,343.3,276.4,345.1z"/>
	
		<radialGradient id="SVGID_00000146498848301214022700000008432532443342658468_" cx="2655.0034" cy="-12975.2275" r="38.6952" gradientTransform="matrix(-1.600000e-03 -0.383 8.710000e-02 -4.000000e-04 1400.507 1356.7739)" gradientUnits="userSpaceOnUse">
		<stop  offset="3.631280e-02" style="stop-color:#F4E600"/>
		<stop  offset="0.1339" style="stop-color:#BFB529"/>
		<stop  offset="0.3126" style="stop-color:#767135"/>
		<stop  offset="0.4837" style="stop-color:#45442D"/>
		<stop  offset="0.6425" style="stop-color:#24261F"/>
		<stop  offset="0.7864" style="stop-color:#0F1211"/>
		<stop  offset="0.9103" style="stop-color:#040506"/>
		<stop  offset="1" style="stop-color:#020203"/>
	</radialGradient>
	<path style="opacity:0.63;fill:url(#SVGID_00000146498848301214022700000008432532443342658468_);" d="M266.1,329.6
		c1.8,0,3.2,6.8,3.2,15.3s-1.3,15.5-3.1,15.8c-1.8,0.3-3.3-6.6-3.3-15.3C262.9,336.7,264.3,329.6,266.1,329.6z"/>
	
		<radialGradient id="SVGID_00000010284555060393787650000014047309516774207142_" cx="3974.2939" cy="-59591.4531" r="38.6485" gradientTransform="matrix(-0.1915 -0.3317 1.400000e-02 -8.100000e-03 1861.4742 1180.6803)" gradientUnits="userSpaceOnUse">
		<stop  offset="3.631280e-02" style="stop-color:#F4E600"/>
		<stop  offset="0.1339" style="stop-color:#BFB529"/>
		<stop  offset="0.3126" style="stop-color:#767135"/>
		<stop  offset="0.4837" style="stop-color:#45442D"/>
		<stop  offset="0.6425" style="stop-color:#24261F"/>
		<stop  offset="0.7864" style="stop-color:#0F1211"/>
		<stop  offset="0.9103" style="stop-color:#040506"/>
		<stop  offset="1" style="stop-color:#020203"/>
	</radialGradient>
	<path style="opacity:0.63;fill:url(#SVGID_00000010284555060393787650000014047309516774207142_);" d="M258.4,331.7
		c0.3-0.2,3.9,5.6,8.1,12.9c4.2,7.3,7.5,13.6,7.4,13.9c-0.2,0.4-3.8-5.4-8.2-12.9C261.4,338.1,258.1,331.8,258.4,331.7z"/>
	
		<radialGradient id="SVGID_00000093874283950799129200000000431970467086295438_" cx="1308.8888" cy="-44717.3086" r="38.7133" gradientTransform="matrix(0.2154 -0.3167 1.330000e-02 9.100000e-03 578.9222 1166.5504)" gradientUnits="userSpaceOnUse">
		<stop  offset="3.631280e-02" style="stop-color:#F4E600"/>
		<stop  offset="0.1339" style="stop-color:#BFB529"/>
		<stop  offset="0.3126" style="stop-color:#767135"/>
		<stop  offset="0.4837" style="stop-color:#45442D"/>
		<stop  offset="0.6425" style="stop-color:#24261F"/>
		<stop  offset="0.7864" style="stop-color:#0F1211"/>
		<stop  offset="0.9103" style="stop-color:#040506"/>
		<stop  offset="1" style="stop-color:#020203"/>
	</radialGradient>
	<path style="opacity:0.63;fill:url(#SVGID_00000093874283950799129200000000431970467086295438_);" d="M274.8,332.3
		c0.3,0.2-3.4,6-8.1,13c-4.8,7-8.9,12.7-9.3,12.7c-0.4,0,3.2-5.8,8.1-13C270.4,337.8,274.6,332.1,274.8,332.3z"/>
	
		<radialGradient id="SVGID_00000008144692566743731580000011859649775759572915_" cx="-537.2141" cy="9914.5439" r="38.7323" gradientTransform="matrix(0.2623 -1.100000e-03 1.000000e-04 1.610000e-02 406.0372 185.0854)" gradientUnits="userSpaceOnUse">
		<stop  offset="3.631280e-02" style="stop-color:#F4E600"/>
		<stop  offset="0.1339" style="stop-color:#BFB529"/>
		<stop  offset="0.3126" style="stop-color:#767135"/>
		<stop  offset="0.4837" style="stop-color:#45442D"/>
		<stop  offset="0.6425" style="stop-color:#24261F"/>
		<stop  offset="0.7864" style="stop-color:#0F1211"/>
		<stop  offset="0.9103" style="stop-color:#040506"/>
		<stop  offset="1" style="stop-color:#020203"/>
	</radialGradient>
	<path style="opacity:0.63;fill:url(#SVGID_00000008144692566743731580000011859649775759572915_);" d="M276.7,345.3
		c0,0.3-4.7,0.6-10.5,0.6c-5.8,0-10.6-0.2-10.8-0.5c-0.2-0.3,4.5-0.6,10.5-0.6C271.9,344.7,276.7,344.9,276.7,345.3z"/>
	
		<radialGradient id="SVGID_00000119812403088950386970000013062530930354575500_" cx="2659.2109" cy="-61878.5273" r="38.7303" gradientTransform="matrix(-1.600000e-03 -0.383 1.610000e-02 -1.000000e-04 1266.7677 1357.3871)" gradientUnits="userSpaceOnUse">
		<stop  offset="3.631280e-02" style="stop-color:#F4E600"/>
		<stop  offset="0.1339" style="stop-color:#BFB529"/>
		<stop  offset="0.3126" style="stop-color:#767135"/>
		<stop  offset="0.4837" style="stop-color:#45442D"/>
		<stop  offset="0.6425" style="stop-color:#24261F"/>
		<stop  offset="0.7864" style="stop-color:#0F1211"/>
		<stop  offset="0.9103" style="stop-color:#040506"/>
		<stop  offset="1" style="stop-color:#020203"/>
	</radialGradient>
	<path style="opacity:0.63;fill:url(#SVGID_00000119812403088950386970000013062530930354575500_);" d="M266.2,329.6
		c0.3,0,0.6,6.8,0.6,15.3c0,8.4-0.2,15.5-0.5,15.7c-0.3,0.3-0.6-6.6-0.7-15.3C265.6,336.6,265.9,329.6,266.2,329.6z"/>
</g>
<g>
	<path class="st0" d="M301.9,383.5c0,0,6.7,11.1,11.5,8c0,0-4.6,2.8,1.7,13c0,0-6.6-9.9-11.4-6.8
		C303.6,397.6,308.6,394.7,301.9,383.5z"/>
	
		<radialGradient id="SVGID_00000158747344189738897980000012716255158113872560_" cx="-1128.972" cy="-5689.5854" r="74.1522" gradientTransform="matrix(0.2158 -0.1356 4.630000e-02 7.370000e-02 815.2592 660.3164)" gradientUnits="userSpaceOnUse">
		<stop  offset="3.631280e-02" style="stop-color:#F4E600"/>
		<stop  offset="0.1339" style="stop-color:#BFB529"/>
		<stop  offset="0.3126" style="stop-color:#767135"/>
		<stop  offset="0.4837" style="stop-color:#45442D"/>
		<stop  offset="0.6425" style="stop-color:#24261F"/>
		<stop  offset="0.7864" style="stop-color:#0F1211"/>
		<stop  offset="0.9103" style="stop-color:#040506"/>
		<stop  offset="1" style="stop-color:#020203"/>
	</radialGradient>
	<path style="opacity:0.63;fill:url(#SVGID_00000158747344189738897980000012716255158113872560_);" d="M325,383.6
		c1.8,2.8-4.2,9.8-13.3,15.5c-9.1,5.7-18.2,8.2-20.2,5.6c-2.1-2.7,3.8-9.7,13.2-15.6C314.1,383.2,323.2,380.7,325,383.6z"/>
	
		<radialGradient id="SVGID_00000119104107536662454270000015211722874054369448_" cx="4014.3584" cy="-14404.6543" r="74.149" gradientTransform="matrix(-0.2038 -0.3243 7.370000e-02 -4.630000e-02 2187.9485 1029.0035)" gradientUnits="userSpaceOnUse">
		<stop  offset="3.631280e-02" style="stop-color:#F4E600"/>
		<stop  offset="0.1339" style="stop-color:#BFB529"/>
		<stop  offset="0.3126" style="stop-color:#767135"/>
		<stop  offset="0.4837" style="stop-color:#45442D"/>
		<stop  offset="0.6425" style="stop-color:#24261F"/>
		<stop  offset="0.7864" style="stop-color:#0F1211"/>
		<stop  offset="0.9103" style="stop-color:#040506"/>
		<stop  offset="1" style="stop-color:#020203"/>
	</radialGradient>
	<path style="opacity:0.63;fill:url(#SVGID_00000119104107536662454270000015211722874054369448_);" d="M292.5,368.9
		c2.8-1.8,12.1,7.9,20.7,21.6c8.6,13.7,13.5,26.6,10.9,28.8c-2.6,2.2-12-7.4-20.8-21.5C294.4,383.6,289.6,370.7,292.5,368.9z"/>
	
		<radialGradient id="SVGID_00000098193702487863583010000000502227649969422982_" cx="5312.4146" cy="-50388.6484" r="74.1837" gradientTransform="matrix(-0.3379 -0.1803 7.600000e-03 -1.420000e-02 2486.2178 636.3922)" gradientUnits="userSpaceOnUse">
		<stop  offset="3.631280e-02" style="stop-color:#F4E600"/>
		<stop  offset="0.1339" style="stop-color:#BFB529"/>
		<stop  offset="0.3126" style="stop-color:#767135"/>
		<stop  offset="0.4837" style="stop-color:#45442D"/>
		<stop  offset="0.6425" style="stop-color:#24261F"/>
		<stop  offset="0.7864" style="stop-color:#0F1211"/>
		<stop  offset="0.9103" style="stop-color:#040506"/>
		<stop  offset="1" style="stop-color:#020203"/>
	</radialGradient>
	<path style="opacity:0.63;fill:url(#SVGID_00000098193702487863583010000000502227649969422982_);" d="M282,380.1
		c0.3-0.6,12.1,5.2,26.3,12.8c14.3,7.6,26,14.4,26.1,15.2c0.1,0.8-11.7-4.9-26.4-12.8C293.4,387.5,281.7,380.6,282,380.1z"/>
	
		<radialGradient id="SVGID_00000147900290892848116010000017303426737042394023_" cx="2260.1719" cy="-69340.0234" r="74.169" gradientTransform="matrix(1.540000e-02 -0.3827 1.610000e-02 6.000000e-04 1389.767 1300.6545)" gradientUnits="userSpaceOnUse">
		<stop  offset="3.631280e-02" style="stop-color:#F4E600"/>
		<stop  offset="0.1339" style="stop-color:#BFB529"/>
		<stop  offset="0.3126" style="stop-color:#767135"/>
		<stop  offset="0.4837" style="stop-color:#45442D"/>
		<stop  offset="0.6425" style="stop-color:#24261F"/>
		<stop  offset="0.7864" style="stop-color:#0F1211"/>
		<stop  offset="0.9103" style="stop-color:#040506"/>
		<stop  offset="1" style="stop-color:#020203"/>
	</radialGradient>
	<path style="opacity:0.63;fill:url(#SVGID_00000147900290892848116010000017303426737042394023_);" d="M309.4,364.4
		c0.6,0,0.6,13.1-0.1,29.3c-0.7,16.2-1.7,29.6-2.3,30.1c-0.7,0.5-0.6-12.6,0-29.3C307.7,377.9,308.8,364.4,309.4,364.4z"/>
	
		<radialGradient id="SVGID_00000048485356342804251340000017606110403252276359_" cx="-1008.155" cy="-22374.7617" r="74.0372" gradientTransform="matrix(0.2221 -0.1396 8.600000e-03 1.370000e-02 724.7398 560.2073)" gradientUnits="userSpaceOnUse">
		<stop  offset="3.631280e-02" style="stop-color:#F4E600"/>
		<stop  offset="0.1339" style="stop-color:#BFB529"/>
		<stop  offset="0.3126" style="stop-color:#767135"/>
		<stop  offset="0.4837" style="stop-color:#45442D"/>
		<stop  offset="0.6425" style="stop-color:#24261F"/>
		<stop  offset="0.7864" style="stop-color:#0F1211"/>
		<stop  offset="0.9103" style="stop-color:#040506"/>
		<stop  offset="1" style="stop-color:#020203"/>
	</radialGradient>
	<path style="opacity:0.63;fill:url(#SVGID_00000048485356342804251340000017606110403252276359_);" d="M325.7,383.6
		c0.3,0.5-7,5.7-16.4,11.6c-9.4,5.9-17.5,10.4-18.1,10c-0.6-0.4,6.7-5.6,16.4-11.6S325.3,383.1,325.7,383.6z"/>
	
		<radialGradient id="SVGID_00000045616884423483469590000005482494878842102152_" cx="4013.2949" cy="-69288.8828" r="74.0357" gradientTransform="matrix(-0.2038 -0.3243 1.370000e-02 -8.600000e-03 2075.613 1099.5549)" gradientUnits="userSpaceOnUse">
		<stop  offset="3.631280e-02" style="stop-color:#F4E600"/>
		<stop  offset="0.1339" style="stop-color:#BFB529"/>
		<stop  offset="0.3126" style="stop-color:#767135"/>
		<stop  offset="0.4837" style="stop-color:#45442D"/>
		<stop  offset="0.6425" style="stop-color:#24261F"/>
		<stop  offset="0.7864" style="stop-color:#0F1211"/>
		<stop  offset="0.9103" style="stop-color:#040506"/>
		<stop  offset="1" style="stop-color:#020203"/>
	</radialGradient>
	<path style="opacity:0.63;fill:url(#SVGID_00000045616884423483469590000005482494878842102152_);" d="M292.6,368.8
		c0.5-0.3,7.9,10.5,16.5,24.2c8.6,13.7,15.4,25.4,15.1,26.1c-0.3,0.7-7.7-10.1-16.5-24.2C298.9,380.8,292.1,369.1,292.6,368.8z"/>
</g>
<radialGradient id="SVGID_00000060729624022369945710000017615637424833943682_" cx="347.8818" cy="461.1179" r="23.1919" gradientUnits="userSpaceOnUse">
	<stop  offset="0" style="stop-color:#FBEA26"/>
	<stop  offset="0.3447" style="stop-color:#857D3D"/>
	<stop  offset="0.7983" style="stop-color:#1F201C"/>
	<stop  offset="1" style="stop-color:#020203"/>
</radialGradient>
<circle style="opacity:0.25;fill:url(#SVGID_00000060729624022369945710000017615637424833943682_);" cx="347.9" cy="461.1" r="23.2"/>
<radialGradient id="SVGID_00000003800583565171800550000008501023047253163442_" cx="323.0412" cy="383.0298" r="23.1919" gradientUnits="userSpaceOnUse">
	<stop  offset="0" style="stop-color:#FBEA26"/>
	<stop  offset="0.3447" style="stop-color:#857D3D"/>
	<stop  offset="0.7983" style="stop-color:#1F201C"/>
	<stop  offset="1" style="stop-color:#020203"/>
</radialGradient>
<circle style="opacity:0.25;fill:url(#SVGID_00000003800583565171800550000008501023047253163442_);" cx="323" cy="383" r="23.2"/>
<radialGradient id="SVGID_00000036231594304812114430000016938224448845696698_" cx="267.9548" cy="400.5322" r="23.1919" gradientUnits="userSpaceOnUse">
	<stop  offset="0" style="stop-color:#FBEA26"/>
	<stop  offset="0.3447" style="stop-color:#857D3D"/>
	<stop  offset="0.7983" style="stop-color:#1F201C"/>
	<stop  offset="1" style="stop-color:#020203"/>
</radialGradient>
<circle style="opacity:0.25;fill:url(#SVGID_00000036231594304812114430000016938224448845696698_);" cx="268" cy="400.5" r="23.2"/>
<radialGradient id="SVGID_00000039110965563483887090000009941468202218493352_" cx="374.4147" cy="432.8511" r="23.1919" gradientUnits="userSpaceOnUse">
	<stop  offset="0" style="stop-color:#FBEA26"/>
	<stop  offset="0.3447" style="stop-color:#857D3D"/>
	<stop  offset="0.7983" style="stop-color:#1F201C"/>
	<stop  offset="1" style="stop-color:#020203"/>
</radialGradient>
<circle style="opacity:0.25;fill:url(#SVGID_00000039110965563483887090000009941468202218493352_);" cx="374.4" cy="432.9" r="23.2"/>
<radialGradient id="SVGID_00000014624152553281232590000004020454531869564091_" cx="304.4625" cy="330.6716" r="23.1919" gradientUnits="userSpaceOnUse">
	<stop  offset="0" style="stop-color:#FBEA26"/>
	<stop  offset="0.3447" style="stop-color:#857D3D"/>
	<stop  offset="0.7983" style="stop-color:#1F201C"/>
	<stop  offset="1" style="stop-color:#020203"/>
</radialGradient>
<circle style="opacity:0.25;fill:url(#SVGID_00000014624152553281232590000004020454531869564091_);" cx="304.5" cy="330.7" r="23.2"/>
<radialGradient id="SVGID_00000181084950858940724210000012749766441511299970_" cx="317.5257" cy="418.4433" r="14.0539" gradientUnits="userSpaceOnUse">
	<stop  offset="0" style="stop-color:#FBEA26"/>
	<stop  offset="0.3447" style="stop-color:#857D3D"/>
	<stop  offset="0.7983" style="stop-color:#1F201C"/>
	<stop  offset="1" style="stop-color:#020203"/>
</radialGradient>
<circle style="opacity:0.25;fill:url(#SVGID_00000181084950858940724210000012749766441511299970_);" cx="317.5" cy="418.4" r="14.1"/>
<radialGradient id="SVGID_00000018205591612924388190000012187055468474108568_" cx="238.6486" cy="406.2567" r="14.0539" gradientUnits="userSpaceOnUse">
	<stop  offset="0" style="stop-color:#FBEA26"/>
	<stop  offset="0.3447" style="stop-color:#857D3D"/>
	<stop  offset="0.7983" style="stop-color:#1F201C"/>
	<stop  offset="1" style="stop-color:#020203"/>
</radialGradient>
<circle style="opacity:0.25;fill:url(#SVGID_00000018205591612924388190000012187055468474108568_);" cx="238.6" cy="406.3" r="14.1"/>
<radialGradient id="SVGID_00000013891529129601396250000009306297458829151416_" cx="417.8516" cy="446.7891" r="14.0539" gradientUnits="userSpaceOnUse">
	<stop  offset="0" style="stop-color:#FBEA26"/>
	<stop  offset="0.3447" style="stop-color:#857D3D"/>
	<stop  offset="0.7983" style="stop-color:#1F201C"/>
	<stop  offset="1" style="stop-color:#020203"/>
</radialGradient>
<circle style="opacity:0.25;fill:url(#SVGID_00000013891529129601396250000009306297458829151416_);" cx="417.9" cy="446.8" r="14.1"/>
</svg>
