<?xml version="1.0" encoding="utf-8"?>
<!-- Generator: Adobe Illustrator 26.0.2, SVG Export Plug-In . SVG Version: 6.00 Build 0)  -->
<svg version="1.1" id="Layer_1" xmlns="http://www.w3.org/2000/svg" xmlns:xlink="http://www.w3.org/1999/xlink" x="0px" y="0px"
	 viewBox="0 0 340.2 425.2" style="enable-background:new 0 0 340.2 425.2;" xml:space="preserve">
<style type="text/css">
	.st0{fill:#FFFFFF;}
	.st1{opacity:0.63;fill:url(#SVGID_1_);}
	.st2{opacity:0.63;fill:url(#SVGID_00000021092106742934374120000011431125160674965927_);}
	.st3{opacity:0.63;fill:url(#SVGID_00000065041486781441479400000014944490214979946405_);}
	.st4{opacity:0.63;fill:url(#SVGID_00000046320254361369933040000012679997300997487028_);}
	.st5{opacity:0.63;fill:url(#SVGID_00000033333398327496291990000012044258385477813660_);}
	.st6{opacity:0.63;fill:url(#SVGID_00000163072604219106854850000000155970586077755287_);}
	.st7{opacity:0.63;fill:url(#SVGID_00000059992488657537165910000008993707493358015916_);}
	.st8{opacity:0.63;fill:url(#SVGID_00000157284648350512683580000005329831752054597263_);}
	.st9{opacity:0.63;fill:url(#SVGID_00000014632456769715885310000001735325818857002127_);}
	.st10{opacity:0.63;fill:url(#SVGID_00000165928041974631711300000004045323771607358397_);}
	.st11{opacity:0.63;fill:url(#SVGID_00000038381179992456002670000006917187315839505038_);}
	.st12{opacity:0.63;fill:url(#SVGID_00000159451236704000043630000014230517809411669147_);}
	.st13{opacity:0.63;fill:url(#SVGID_00000160166760324487638950000006957801845342943897_);}
	.st14{opacity:0.63;fill:url(#SVGID_00000085953227656336259740000005451151683364812439_);}
	.st15{opacity:0.63;fill:url(#SVGID_00000178180995372199431700000001314003947342372264_);}
	.st16{opacity:0.63;fill:url(#SVGID_00000006698766483519526610000013102709877811277239_);}
	.st17{opacity:0.63;fill:url(#SVGID_00000041977662098111879080000016368654443065713282_);}
	.st18{opacity:0.63;fill:url(#SVGID_00000073712512439176774090000009415464814778310566_);}
	.st19{opacity:0.63;fill:url(#SVGID_00000133498455802471161760000011307868258795023782_);}
	.st20{opacity:0.63;fill:url(#SVGID_00000146481515277660579640000016870588598674457770_);}
	.st21{opacity:0.63;fill:url(#SVGID_00000124152975219552926710000011172281974290148483_);}
	.st22{opacity:0.63;fill:url(#SVGID_00000079484315896849737370000008304602758671455904_);}
	.st23{opacity:0.63;fill:url(#SVGID_00000034081598968194484530000012244319571017706400_);}
	.st24{opacity:0.63;fill:url(#SVGID_00000150077129090891404470000004845365402949053617_);}
	.st25{opacity:0.25;fill:url(#SVGID_00000163074410675003533830000004789946859224587911_);}
	.st26{opacity:0.25;fill:url(#SVGID_00000059279571366015444370000006203960780347435405_);}
	.st27{opacity:0.25;fill:url(#SVGID_00000161621373597273638670000018220137627948528010_);}
	.st28{opacity:0.25;fill:url(#SVGID_00000152240427696029293130000010007417092829129642_);}
	.st29{opacity:0.25;fill:url(#SVGID_00000093176222168553801500000013517760236284650652_);}
	.st30{opacity:0.25;fill:url(#SVGID_00000154409455142584514500000007034547026930578591_);}
	.st31{opacity:0.25;fill:url(#SVGID_00000141457432367514476990000000133776404318296468_);}
</style>
<image style="overflow:visible;" width="135" height="129" xlink:href="../Dropbox/BrainExplorerGraphics/other/gold_nugget.png"  transform="matrix(0.5417 0 0 0.5806 127.2965 145.693)">
</image>
<image style="overflow:visible;" width="135" height="129" xlink:href="../Dropbox/BrainExplorerGraphics/other/gold_nugget.png"  transform="matrix(-6.055280e-02 0.5383 -0.577 -6.490587e-02 272.7611 124.952)">
</image>
<image style="overflow:visible;" width="135" height="129" xlink:href="../Dropbox/BrainExplorerGraphics/other/gold_nugget.png"  transform="matrix(0.4802 0.2506 -0.2686 0.5148 155.8256 96.567)">
</image>
<image style="overflow:visible;" width="135" height="129" xlink:href="../Dropbox/BrainExplorerGraphics/other/gold_nugget.png"  transform="matrix(-6.055280e-02 0.5383 -0.577 -6.490587e-02 248.2823 155.0573)">
</image>
<image style="overflow:visible;" width="135" height="129" xlink:href="../Dropbox/BrainExplorerGraphics/other/gold_nugget.png"  transform="matrix(0.4762 0.2582 -0.2767 0.5104 115.7963 66.2287)">
</image>
<image style="overflow:visible;" width="135" height="129" xlink:href="../Dropbox/BrainExplorerGraphics/other/gold_nugget.png"  transform="matrix(0.5417 0 0 0.5806 27.2473 125.4842)">
</image>
<image style="overflow:visible;" width="135" height="129" xlink:href="../Dropbox/BrainExplorerGraphics/other/gold_nugget.png"  transform="matrix(0.5417 0 0 0.5806 63.8114 136.6009)">
</image>
<g>
	<g>
		<g>
			<path class="st0" d="M88.1,165.3c0,0-2.8,8.1,3.3,9.9c0,0-6-1-8.2,6.2c0,0,2.8-8-3.1-9.8C80,171.6,85.6,173.2,88.1,165.3z"/>
			
				<radialGradient id="SVGID_1_" cx="-340.7326" cy="5573.1489" r="87.6413" gradientTransform="matrix(0.2401 7.590000e-02 -2.555574e-02 8.310000e-02 310.0446 -264.2807)" gradientUnits="userSpaceOnUse">
				<stop  offset="3.631280e-02" style="stop-color:#FFFF00"/>
				<stop  offset="0.1516" style="stop-color:#D1D100"/>
				<stop  offset="0.3266" style="stop-color:#939300"/>
				<stop  offset="0.4943" style="stop-color:#5E5E00"/>
				<stop  offset="0.6499" style="stop-color:#353500"/>
				<stop  offset="0.7907" style="stop-color:#181800"/>
				<stop  offset="0.9121" style="stop-color:#060600"/>
				<stop  offset="1" style="stop-color:#000000"/>
			</radialGradient>
			<path class="st1" d="M107.8,180c-1.2,3.8-11.8,3.8-23.8,0c-12-3.8-21.1-10-20.2-13.9c0.8-4,11.5-4.1,23.8-0.2
				C99.9,169.9,109,176.2,107.8,180z"/>
			
				<radialGradient id="SVGID_00000041976957329717057220000004504023979122890137_" cx="1278.6758" cy="-11881.0918" r="87.6404" gradientTransform="matrix(0.1126 -0.3656 8.199545e-02 2.590000e-02 916.0581 948.1904)" gradientUnits="userSpaceOnUse">
				<stop  offset="3.631280e-02" style="stop-color:#FFFF00"/>
				<stop  offset="0.1516" style="stop-color:#D1D100"/>
				<stop  offset="0.3266" style="stop-color:#939300"/>
				<stop  offset="0.4943" style="stop-color:#5E5E00"/>
				<stop  offset="0.6499" style="stop-color:#353500"/>
				<stop  offset="0.7907" style="stop-color:#181800"/>
				<stop  offset="0.9121" style="stop-color:#060600"/>
				<stop  offset="1" style="stop-color:#000000"/>
			</radialGradient>
			<path style="opacity:0.63;fill:url(#SVGID_00000041976957329717057220000004504023979122890137_);" d="M96.2,139.5
				c3.8,1.2,2.2,16.9-3.4,35.2c-5.6,18.3-13.3,32.5-17.2,31.9c-4-0.7-2.6-16.4,3.2-35.2C84.6,152.6,92.4,138.3,96.2,139.5z"/>
			
				<radialGradient id="SVGID_00000173849716021004465680000007856926654236475565_" cx="2617.272" cy="-68289.4375" r="87.4917" gradientTransform="matrix(-8.140343e-02 -0.374 1.558999e-02 -3.500000e-03 1363.5067 912.8333)" gradientUnits="userSpaceOnUse">
				<stop  offset="3.631280e-02" style="stop-color:#FFFF00"/>
				<stop  offset="0.1516" style="stop-color:#D1D100"/>
				<stop  offset="0.3266" style="stop-color:#939300"/>
				<stop  offset="0.4943" style="stop-color:#5E5E00"/>
				<stop  offset="0.6499" style="stop-color:#353500"/>
				<stop  offset="0.7907" style="stop-color:#181800"/>
				<stop  offset="0.9121" style="stop-color:#060600"/>
				<stop  offset="1" style="stop-color:#000000"/>
			</radialGradient>
			<path style="opacity:0.63;fill:url(#SVGID_00000173849716021004465680000007856926654236475565_);" d="M78.4,138.7
				c0.7-0.2,4.6,14.8,8.6,33.5c4.1,18.7,6.9,34.4,6.3,35.1c-0.6,0.7-4.5-14.3-8.7-33.5C80.5,154.6,77.7,138.9,78.4,138.7z"/>
			
				<radialGradient id="SVGID_00000148658787606841794760000004959578448274929842_" cx="319.7156" cy="-22408.7598" r="87.5314" gradientTransform="matrix(0.2969 -0.237 9.867082e-03 1.270000e-02 212.0056 533.3503)" gradientUnits="userSpaceOnUse">
				<stop  offset="3.631280e-02" style="stop-color:#FFFF00"/>
				<stop  offset="0.1516" style="stop-color:#D1D100"/>
				<stop  offset="0.3266" style="stop-color:#939300"/>
				<stop  offset="0.4943" style="stop-color:#5E5E00"/>
				<stop  offset="0.6499" style="stop-color:#353500"/>
				<stop  offset="0.7907" style="stop-color:#181800"/>
				<stop  offset="0.9121" style="stop-color:#060600"/>
				<stop  offset="1" style="stop-color:#000000"/>
			</radialGradient>
			<path style="opacity:0.63;fill:url(#SVGID_00000148658787606841794760000004959578448274929842_);" d="M113.1,151.3
				c0.5,0.6-11.2,10.6-26,22.4c-14.8,11.8-27.6,21.2-28.4,21c-0.9-0.2,10.7-10.3,26-22.5C99.8,160.1,112.6,150.7,113.1,151.3z"/>
			
				<radialGradient id="SVGID_00000062194379715800136240000003826710908167728308_" cx="-244.2667" cy="39164.8359" r="87.6241" gradientTransform="matrix(0.2471 7.810000e-02 -4.736200e-03 1.540000e-02 331.529 -410.6368)" gradientUnits="userSpaceOnUse">
				<stop  offset="3.631280e-02" style="stop-color:#FFFF00"/>
				<stop  offset="0.1516" style="stop-color:#D1D100"/>
				<stop  offset="0.3266" style="stop-color:#939300"/>
				<stop  offset="0.4943" style="stop-color:#5E5E00"/>
				<stop  offset="0.6499" style="stop-color:#353500"/>
				<stop  offset="0.7907" style="stop-color:#181800"/>
				<stop  offset="0.9121" style="stop-color:#060600"/>
				<stop  offset="1" style="stop-color:#000000"/>
			</radialGradient>
			<path style="opacity:0.63;fill:url(#SVGID_00000062194379715800136240000003826710908167728308_);" d="M108.3,180.6
				c-0.2,0.7-10.4-1.9-22.7-5.8c-12.3-3.9-22.5-7.7-22.6-8.5c-0.1-0.8,10,1.7,22.7,5.8C98.4,176,108.5,179.9,108.3,180.6z"/>
			
				<radialGradient id="SVGID_00000106838315717160701180000002285008330566077357_" cx="1278.9755" cy="-55033.7812" r="87.6176" gradientTransform="matrix(0.1126 -0.3656 1.519531e-02 4.800000e-03 778.4082 904.8446)" gradientUnits="userSpaceOnUse">
				<stop  offset="3.631280e-02" style="stop-color:#FFFF00"/>
				<stop  offset="0.1516" style="stop-color:#D1D100"/>
				<stop  offset="0.3266" style="stop-color:#939300"/>
				<stop  offset="0.4943" style="stop-color:#5E5E00"/>
				<stop  offset="0.6499" style="stop-color:#353500"/>
				<stop  offset="0.7907" style="stop-color:#181800"/>
				<stop  offset="0.9121" style="stop-color:#060600"/>
				<stop  offset="1" style="stop-color:#000000"/>
			</radialGradient>
			<path style="opacity:0.63;fill:url(#SVGID_00000106838315717160701180000002285008330566077357_);" d="M96.5,139.6
				c0.7,0.2-3.3,15.2-8.9,33.4c-5.6,18.3-10.9,33.3-11.7,33.6c-0.9,0.3,3.1-14.6,8.9-33.4C90.5,154.4,95.8,139.4,96.5,139.6z"/>
		</g>
		<g>
			<path class="st0" d="M152.5,163.9c0,0-0.1,6.6,2.8,6.5c0,0-2.9,0-2.7,3.3c0,0-0.2-3.3-3-3.2C149.5,170.4,152.3,170.5,152.5,163.9
				z"/>
			
				<radialGradient id="SVGID_00000052079129542031596470000007273745356931762571_" cx="-699.3712" cy="208.0196" r="38.6927" gradientTransform="matrix(0.2515 -1.000000e-03 3.946833e-04 8.710000e-02 328.1554 151.3447)" gradientUnits="userSpaceOnUse">
				<stop  offset="3.631280e-02" style="stop-color:#FFFF00"/>
				<stop  offset="0.1516" style="stop-color:#D1D100"/>
				<stop  offset="0.3266" style="stop-color:#939300"/>
				<stop  offset="0.4943" style="stop-color:#5E5E00"/>
				<stop  offset="0.6499" style="stop-color:#353500"/>
				<stop  offset="0.7907" style="stop-color:#181800"/>
				<stop  offset="0.9121" style="stop-color:#060600"/>
				<stop  offset="1" style="stop-color:#000000"/>
			</radialGradient>
			<path style="opacity:0.63;fill:url(#SVGID_00000052079129542031596470000007273745356931762571_);" d="M162.5,170.2
				c0,1.8-4.5,3.2-10,3.2s-10.2-1.4-10.4-3.1c-0.2-1.8,4.3-3.3,10-3.3C157.9,166.9,162.5,168.4,162.5,170.2z"/>
			
				<radialGradient id="SVGID_00000145047898442450685820000006820117518748278148_" cx="2495.5981" cy="-12918.4561" r="38.6952" gradientTransform="matrix(-1.578733e-03 -0.383 8.594228e-02 -4.000000e-04 1266.5189 1120.8092)" gradientUnits="userSpaceOnUse">
				<stop  offset="3.631280e-02" style="stop-color:#FFFF00"/>
				<stop  offset="0.1516" style="stop-color:#D1D100"/>
				<stop  offset="0.3266" style="stop-color:#939300"/>
				<stop  offset="0.4943" style="stop-color:#5E5E00"/>
				<stop  offset="0.6499" style="stop-color:#353500"/>
				<stop  offset="0.7907" style="stop-color:#181800"/>
				<stop  offset="0.9121" style="stop-color:#060600"/>
				<stop  offset="1" style="stop-color:#000000"/>
			</radialGradient>
			<path style="opacity:0.63;fill:url(#SVGID_00000145047898442450685820000006820117518748278148_);" d="M152.3,154.6
				c1.7,0,3.1,6.8,3.2,15.3c0,8.4-1.3,15.5-3.1,15.8c-1.8,0.3-3.2-6.6-3.3-15.3C149.1,161.7,150.6,154.7,152.3,154.6z"/>
			
				<radialGradient id="SVGID_00000109744881325497041700000011752317102058024117_" cx="3790.8064" cy="-58925.4297" r="38.6505" gradientTransform="matrix(-0.189 -0.3317 1.381391e-02 -8.100000e-03 1682.6185 950.2772)" gradientUnits="userSpaceOnUse">
				<stop  offset="3.631280e-02" style="stop-color:#FFFF00"/>
				<stop  offset="0.1516" style="stop-color:#D1D100"/>
				<stop  offset="0.3266" style="stop-color:#939300"/>
				<stop  offset="0.4943" style="stop-color:#5E5E00"/>
				<stop  offset="0.6499" style="stop-color:#353500"/>
				<stop  offset="0.7907" style="stop-color:#181800"/>
				<stop  offset="0.9121" style="stop-color:#060600"/>
				<stop  offset="1" style="stop-color:#000000"/>
			</radialGradient>
			<path style="opacity:0.63;fill:url(#SVGID_00000109744881325497041700000011752317102058024117_);" d="M144.7,156.7
				c0.3-0.2,3.9,5.6,8,12.9c4.2,7.3,7.4,13.6,7.3,13.9c-0.2,0.4-3.8-5.4-8-12.9C147.7,163.1,144.4,156.9,144.7,156.7z"/>
			
				<radialGradient id="SVGID_00000049201188593383178670000010922947257868820107_" cx="1184.7285" cy="-43514.5586" r="38.7122" gradientTransform="matrix(0.2125 -0.3167 1.312322e-02 9.100000e-03 471.5898 941.3486)" gradientUnits="userSpaceOnUse">
				<stop  offset="3.631280e-02" style="stop-color:#FFFF00"/>
				<stop  offset="0.1516" style="stop-color:#D1D100"/>
				<stop  offset="0.3266" style="stop-color:#939300"/>
				<stop  offset="0.4943" style="stop-color:#5E5E00"/>
				<stop  offset="0.6499" style="stop-color:#353500"/>
				<stop  offset="0.7907" style="stop-color:#181800"/>
				<stop  offset="0.9121" style="stop-color:#060600"/>
				<stop  offset="1" style="stop-color:#000000"/>
			</radialGradient>
			<path style="opacity:0.63;fill:url(#SVGID_00000049201188593383178670000010922947257868820107_);" d="M161,157.3
				c0.3,0.2-3.3,6-8,13s-8.8,12.7-9.2,12.7c-0.4,0,3.2-5.8,8-13C156.5,162.8,160.7,157.2,161,157.3z"/>
			
				<radialGradient id="SVGID_00000088852386840595847600000011690272701805241478_" cx="-593.3979" cy="10286.998" r="38.7338" gradientTransform="matrix(0.2588 -1.100000e-03 9.867082e-05 1.610000e-02 304.9024 4.0919)" gradientUnits="userSpaceOnUse">
				<stop  offset="3.631280e-02" style="stop-color:#FFFF00"/>
				<stop  offset="0.1516" style="stop-color:#D1D100"/>
				<stop  offset="0.3266" style="stop-color:#939300"/>
				<stop  offset="0.4943" style="stop-color:#5E5E00"/>
				<stop  offset="0.6499" style="stop-color:#353500"/>
				<stop  offset="0.7907" style="stop-color:#181800"/>
				<stop  offset="0.9121" style="stop-color:#060600"/>
				<stop  offset="1" style="stop-color:#000000"/>
			</radialGradient>
			<path style="opacity:0.63;fill:url(#SVGID_00000088852386840595847600000011690272701805241478_);" d="M162.8,170.3
				c0,0.3-4.6,0.6-10.3,0.6c-5.7,0-10.5-0.2-10.6-0.5c-0.2-0.3,4.4-0.6,10.3-0.6C158,169.7,162.8,170,162.8,170.3z"/>
			
				<radialGradient id="SVGID_00000173861096133763706140000008383195120875578517_" cx="2499.717" cy="-60760.8477" r="38.7304" gradientTransform="matrix(-1.578733e-03 -0.383 1.588600e-02 -1.000000e-04 1121.6807 1121.4775)" gradientUnits="userSpaceOnUse">
				<stop  offset="3.631280e-02" style="stop-color:#FFFF00"/>
				<stop  offset="0.1516" style="stop-color:#D1D100"/>
				<stop  offset="0.3266" style="stop-color:#939300"/>
				<stop  offset="0.4943" style="stop-color:#5E5E00"/>
				<stop  offset="0.6499" style="stop-color:#353500"/>
				<stop  offset="0.7907" style="stop-color:#181800"/>
				<stop  offset="0.9121" style="stop-color:#060600"/>
				<stop  offset="1" style="stop-color:#000000"/>
			</radialGradient>
			<path style="opacity:0.63;fill:url(#SVGID_00000173861096133763706140000008383195120875578517_);" d="M152.4,154.6
				c0.3,0,0.6,6.8,0.6,15.3c0,8.4-0.2,15.5-0.5,15.7c-0.3,0.3-0.6-6.6-0.7-15.3C151.9,161.7,152.1,154.7,152.4,154.6z"/>
		</g>
		<g>
			<path class="st0" d="M40.7,159c0,0-0.1,6.6,2.8,6.5c0,0-2.9,0-2.7,3.3c0,0-0.2-3.3-3-3.2C37.7,165.5,40.6,165.6,40.7,159z"/>
			
				<radialGradient id="SVGID_00000159467876810421532590000018445171385569005196_" cx="-1143.5076" cy="146.8482" r="38.6926" gradientTransform="matrix(0.2515 -1.000000e-03 3.946833e-04 8.710000e-02 328.1554 151.3447)" gradientUnits="userSpaceOnUse">
				<stop  offset="3.631280e-02" style="stop-color:#FFFF00"/>
				<stop  offset="0.1516" style="stop-color:#D1D100"/>
				<stop  offset="0.3266" style="stop-color:#939300"/>
				<stop  offset="0.4943" style="stop-color:#5E5E00"/>
				<stop  offset="0.6499" style="stop-color:#353500"/>
				<stop  offset="0.7907" style="stop-color:#181800"/>
				<stop  offset="0.9121" style="stop-color:#060600"/>
				<stop  offset="1" style="stop-color:#000000"/>
			</radialGradient>
			<path style="opacity:0.63;fill:url(#SVGID_00000159467876810421532590000018445171385569005196_);" d="M50.8,165.3
				c0,1.8-4.5,3.2-10,3.2c-5.5,0-10.2-1.4-10.4-3.1c-0.2-1.8,4.3-3.3,10-3.3C46.1,162.1,50.8,163.5,50.8,165.3z"/>
			
				<radialGradient id="SVGID_00000132779527461163512200000010711269298323225230_" cx="2509.7073" cy="-14218.2529" r="38.6952" gradientTransform="matrix(-1.578733e-03 -0.383 8.594228e-02 -4.000000e-04 1266.5189 1120.8092)" gradientUnits="userSpaceOnUse">
				<stop  offset="3.631280e-02" style="stop-color:#FFFF00"/>
				<stop  offset="0.1516" style="stop-color:#D1D100"/>
				<stop  offset="0.3266" style="stop-color:#939300"/>
				<stop  offset="0.4943" style="stop-color:#5E5E00"/>
				<stop  offset="0.6499" style="stop-color:#353500"/>
				<stop  offset="0.7907" style="stop-color:#181800"/>
				<stop  offset="0.9121" style="stop-color:#060600"/>
				<stop  offset="1" style="stop-color:#000000"/>
			</radialGradient>
			<path style="opacity:0.63;fill:url(#SVGID_00000132779527461163512200000010711269298323225230_);" d="M40.6,149.8
				c1.7,0,3.1,6.8,3.2,15.3c0,8.4-1.3,15.5-3.1,15.8c-1.8,0.3-3.2-6.6-3.3-15.3C37.4,156.8,38.8,149.8,40.6,149.8z"/>
			
				<radialGradient id="SVGID_00000144309765245602851710000000093681854587555983_" cx="3949.8999" cy="-64837.4609" r="38.6485" gradientTransform="matrix(-0.189 -0.3317 1.381391e-02 -8.100000e-03 1682.6185 950.2772)" gradientUnits="userSpaceOnUse">
				<stop  offset="3.631280e-02" style="stop-color:#FFFF00"/>
				<stop  offset="0.1516" style="stop-color:#D1D100"/>
				<stop  offset="0.3266" style="stop-color:#939300"/>
				<stop  offset="0.4943" style="stop-color:#5E5E00"/>
				<stop  offset="0.6499" style="stop-color:#353500"/>
				<stop  offset="0.7907" style="stop-color:#181800"/>
				<stop  offset="0.9121" style="stop-color:#060600"/>
				<stop  offset="1" style="stop-color:#000000"/>
			</radialGradient>
			<path style="opacity:0.63;fill:url(#SVGID_00000144309765245602851710000000093681854587555983_);" d="M33,151.8
				c0.3-0.2,3.9,5.6,8,12.9c4.2,7.3,7.4,13.6,7.3,13.9c-0.2,0.4-3.8-5.4-8-12.9C35.9,158.3,32.7,152,33,151.8z"/>
			
				<radialGradient id="SVGID_00000128478789132153433910000015410037867944437682_" cx="1028.3057" cy="-49495.1133" r="38.7121" gradientTransform="matrix(0.2125 -0.3167 1.312322e-02 9.100000e-03 471.5898 941.3486)" gradientUnits="userSpaceOnUse">
				<stop  offset="3.631280e-02" style="stop-color:#FFFF00"/>
				<stop  offset="0.1516" style="stop-color:#D1D100"/>
				<stop  offset="0.3266" style="stop-color:#939300"/>
				<stop  offset="0.4943" style="stop-color:#5E5E00"/>
				<stop  offset="0.6499" style="stop-color:#353500"/>
				<stop  offset="0.7907" style="stop-color:#181800"/>
				<stop  offset="0.9121" style="stop-color:#060600"/>
				<stop  offset="1" style="stop-color:#000000"/>
			</radialGradient>
			<path style="opacity:0.63;fill:url(#SVGID_00000128478789132153433910000015410037867944437682_);" d="M49.2,152.5
				c0.3,0.2-3.3,6-8,13c-4.7,7-8.8,12.7-9.2,12.7c-0.4,0,3.2-5.8,8-13S48.9,152.3,49.2,152.5z"/>
			
				<radialGradient id="SVGID_00000094610639474203926310000006868122577780043953_" cx="-1024.9708" cy="9954.167" r="38.7322" gradientTransform="matrix(0.2588 -1.100000e-03 9.867082e-05 1.610000e-02 304.9024 4.0919)" gradientUnits="userSpaceOnUse">
				<stop  offset="3.631280e-02" style="stop-color:#FFFF00"/>
				<stop  offset="0.1516" style="stop-color:#D1D100"/>
				<stop  offset="0.3266" style="stop-color:#939300"/>
				<stop  offset="0.4943" style="stop-color:#5E5E00"/>
				<stop  offset="0.6499" style="stop-color:#353500"/>
				<stop  offset="0.7907" style="stop-color:#181800"/>
				<stop  offset="0.9121" style="stop-color:#060600"/>
				<stop  offset="1" style="stop-color:#000000"/>
			</radialGradient>
			<path style="opacity:0.63;fill:url(#SVGID_00000094610639474203926310000006868122577780043953_);" d="M51.1,165.4
				c0,0.3-4.6,0.6-10.3,0.6c-5.7,0-10.5-0.2-10.6-0.5c-0.2-0.3,4.4-0.6,10.3-0.6C46.3,164.9,51.1,165.1,51.1,165.4z"/>
			
				<radialGradient id="SVGID_00000065763700740284827230000005509140732241938867_" cx="2514.3047" cy="-67792.6172" r="38.7317" gradientTransform="matrix(-1.578733e-03 -0.383 1.588600e-02 -1.000000e-04 1121.6807 1121.4775)" gradientUnits="userSpaceOnUse">
				<stop  offset="3.631280e-02" style="stop-color:#FFFF00"/>
				<stop  offset="0.1516" style="stop-color:#D1D100"/>
				<stop  offset="0.3266" style="stop-color:#939300"/>
				<stop  offset="0.4943" style="stop-color:#5E5E00"/>
				<stop  offset="0.6499" style="stop-color:#353500"/>
				<stop  offset="0.7907" style="stop-color:#181800"/>
				<stop  offset="0.9121" style="stop-color:#060600"/>
				<stop  offset="1" style="stop-color:#000000"/>
			</radialGradient>
			<path style="opacity:0.63;fill:url(#SVGID_00000065763700740284827230000005509140732241938867_);" d="M40.7,149.8
				c0.3,0,0.6,6.8,0.6,15.3c0,8.4-0.2,15.5-0.5,15.7c-0.3,0.3-0.6-6.6-0.7-15.3C40.1,156.8,40.4,149.8,40.7,149.8z"/>
		</g>
		<g>
			<path class="st0" d="M147.3,105.4c0,0,6,9,10.3,6.4c0,0-4.1,2.3,1.5,10.5c0,0-5.9-8-10.2-5.5
				C148.9,116.8,153.3,114.4,147.3,105.4z"/>
			
				<radialGradient id="SVGID_00000104664636901529870650000002993053072247447718_" cx="-1111.7227" cy="-6976.8726" r="74.1523" gradientTransform="matrix(0.1933 -0.1093 4.147551e-02 5.942867e-02 657.2644 406.9905)" gradientUnits="userSpaceOnUse">
				<stop  offset="3.631280e-02" style="stop-color:#FFFF00"/>
				<stop  offset="0.1516" style="stop-color:#D1D100"/>
				<stop  offset="0.3266" style="stop-color:#939300"/>
				<stop  offset="0.4943" style="stop-color:#5E5E00"/>
				<stop  offset="0.6499" style="stop-color:#353500"/>
				<stop  offset="0.7907" style="stop-color:#181800"/>
				<stop  offset="0.9121" style="stop-color:#060600"/>
				<stop  offset="1" style="stop-color:#000000"/>
			</radialGradient>
			<path style="opacity:0.63;fill:url(#SVGID_00000104664636901529870650000002993053072247447718_);" d="M168,105.5
				c1.6,2.3-3.7,7.9-11.9,12.5c-8.2,4.6-16.3,6.6-18.1,4.5c-1.9-2.2,3.4-7.9,11.8-12.6C158.2,105.1,166.4,103.2,168,105.5z"/>
			
				<radialGradient id="SVGID_00000090983960195063286160000002210513843487077307_" cx="4129.1211" cy="-14139.5371" r="74.1487" gradientTransform="matrix(-0.1826 -0.2615 6.602041e-02 -3.733443e-02 1840.3107 665.8055)" gradientUnits="userSpaceOnUse">
				<stop  offset="3.631280e-02" style="stop-color:#FFFF00"/>
				<stop  offset="0.1516" style="stop-color:#D1D100"/>
				<stop  offset="0.3266" style="stop-color:#939300"/>
				<stop  offset="0.4943" style="stop-color:#5E5E00"/>
				<stop  offset="0.6499" style="stop-color:#353500"/>
				<stop  offset="0.7907" style="stop-color:#181800"/>
				<stop  offset="0.9121" style="stop-color:#060600"/>
				<stop  offset="1" style="stop-color:#000000"/>
			</radialGradient>
			<path style="opacity:0.63;fill:url(#SVGID_00000090983960195063286160000002210513843487077307_);" d="M138.9,93.6
				c2.5-1.5,10.8,6.3,18.5,17.4c7.7,11,12.1,21.4,9.8,23.2c-2.4,1.8-10.7-5.9-18.7-17.3C140.6,105.5,136.3,95.1,138.9,93.6z"/>
			
				<radialGradient id="SVGID_00000088111926655596431820000014215019571214749885_" cx="5343.7012" cy="-45505.8594" r="74.1844" gradientTransform="matrix(-0.3027 -0.1454 6.808075e-03 -1.145030e-02 2080.2795 369.7692)" gradientUnits="userSpaceOnUse">
				<stop  offset="3.631280e-02" style="stop-color:#FFFF00"/>
				<stop  offset="0.1516" style="stop-color:#D1D100"/>
				<stop  offset="0.3266" style="stop-color:#939300"/>
				<stop  offset="0.4943" style="stop-color:#5E5E00"/>
				<stop  offset="0.6499" style="stop-color:#353500"/>
				<stop  offset="0.7907" style="stop-color:#181800"/>
				<stop  offset="0.9121" style="stop-color:#060600"/>
				<stop  offset="1" style="stop-color:#000000"/>
			</radialGradient>
			<path style="opacity:0.63;fill:url(#SVGID_00000088111926655596431820000014215019571214749885_);" d="M129.5,102.6
				c0.2-0.5,10.8,4.2,23.6,10.3c12.8,6.1,23.3,11.6,23.4,12.2c0.1,0.6-10.5-4-23.6-10.3C139.7,108.6,129.3,103.1,129.5,102.6z"/>
			
				<radialGradient id="SVGID_00000041281133317698960060000011471228643409545897_" cx="2388.8281" cy="-70896.2344" r="74.1703" gradientTransform="matrix(1.379531e-02 -0.3086 1.442237e-02 4.838155e-04 1142.5212 885.4005)" gradientUnits="userSpaceOnUse">
				<stop  offset="3.631280e-02" style="stop-color:#FFFF00"/>
				<stop  offset="0.1516" style="stop-color:#D1D100"/>
				<stop  offset="0.3266" style="stop-color:#939300"/>
				<stop  offset="0.4943" style="stop-color:#5E5E00"/>
				<stop  offset="0.6499" style="stop-color:#353500"/>
				<stop  offset="0.7907" style="stop-color:#181800"/>
				<stop  offset="0.9121" style="stop-color:#060600"/>
				<stop  offset="1" style="stop-color:#000000"/>
			</radialGradient>
			<path style="opacity:0.63;fill:url(#SVGID_00000041281133317698960060000011471228643409545897_);" d="M154.1,90
				c0.6,0,0.5,10.6,0,23.6c-0.6,13-1.5,23.9-2.1,24.3c-0.6,0.4-0.6-10.2,0-23.6C152.5,100.8,153.5,90,154.1,90z"/>
			
				<radialGradient id="SVGID_00000035525571913268366340000000073454196383881355_" cx="-995.3923" cy="-28495.7988" r="74.0372" gradientTransform="matrix(0.199 -0.1126 7.703874e-03 1.104712e-02 570.7374 316.9352)" gradientUnits="userSpaceOnUse">
				<stop  offset="3.631280e-02" style="stop-color:#FFFF00"/>
				<stop  offset="0.1516" style="stop-color:#D1D100"/>
				<stop  offset="0.3266" style="stop-color:#939300"/>
				<stop  offset="0.4943" style="stop-color:#5E5E00"/>
				<stop  offset="0.6499" style="stop-color:#353500"/>
				<stop  offset="0.7907" style="stop-color:#181800"/>
				<stop  offset="0.9121" style="stop-color:#060600"/>
				<stop  offset="1" style="stop-color:#000000"/>
			</radialGradient>
			<path style="opacity:0.63;fill:url(#SVGID_00000035525571913268366340000000073454196383881355_);" d="M168.6,105.5
				c0.3,0.4-6.3,4.6-14.7,9.4c-8.4,4.8-15.7,8.4-16.2,8.1c-0.6-0.3,6-4.5,14.6-9.4C161,108.7,168.3,105,168.6,105.5z"/>
			
				<radialGradient id="SVGID_00000078753520114017156190000000162025225020056449_" cx="4128.0933" cy="-67057.1641" r="74.0345" gradientTransform="matrix(-0.1826 -0.2615 1.227245e-02 -6.934688e-03 1729.8015 728.2829)" gradientUnits="userSpaceOnUse">
				<stop  offset="3.631280e-02" style="stop-color:#FFFF00"/>
				<stop  offset="0.1516" style="stop-color:#D1D100"/>
				<stop  offset="0.3266" style="stop-color:#939300"/>
				<stop  offset="0.4943" style="stop-color:#5E5E00"/>
				<stop  offset="0.6499" style="stop-color:#353500"/>
				<stop  offset="0.7907" style="stop-color:#181800"/>
				<stop  offset="0.9121" style="stop-color:#060600"/>
				<stop  offset="1" style="stop-color:#000000"/>
			</radialGradient>
			<path style="opacity:0.63;fill:url(#SVGID_00000078753520114017156190000000162025225020056449_);" d="M139.1,93.5
				c0.5-0.3,7.1,8.5,14.8,19.5c7.7,11,13.8,20.5,13.5,21.1c-0.2,0.6-6.9-8.1-14.8-19.5C144.6,103.2,138.6,93.8,139.1,93.5z"/>
		</g>
		
			<radialGradient id="SVGID_00000009568532370225337430000005217845610833649079_" cx="75.4007" cy="152.2644" r="27.0943" fx="75.8588" fy="159.8828" gradientTransform="matrix(1.1792 0 0 1 44.8416 0)" gradientUnits="userSpaceOnUse">
			<stop  offset="0" style="stop-color:#FFF100"/>
			<stop  offset="0.3641" style="stop-color:#9E9500"/>
			<stop  offset="0.8042" style="stop-color:#2D2B00"/>
			<stop  offset="1" style="stop-color:#000000"/>
		</radialGradient>
		
			<ellipse style="opacity:0.25;fill:url(#SVGID_00000009568532370225337430000005217845610833649079_);" cx="133.8" cy="152.3" rx="31.9" ry="27.1"/>
		
			<radialGradient id="SVGID_00000073695670456289326730000007752262645423870870_" cx="193.8618" cy="175.2073" r="23.1919" gradientTransform="matrix(0.9867 0 0 1 3.2377 0)" gradientUnits="userSpaceOnUse">
			<stop  offset="0" style="stop-color:#FFF100"/>
			<stop  offset="0.3641" style="stop-color:#9E9500"/>
			<stop  offset="0.8042" style="stop-color:#2D2B00"/>
			<stop  offset="1" style="stop-color:#000000"/>
		</radialGradient>
		
			<ellipse style="opacity:0.25;fill:url(#SVGID_00000073695670456289326730000007752262645423870870_);" cx="194.5" cy="175.2" rx="22.9" ry="23.2"/>
		
			<radialGradient id="SVGID_00000158028368804271727330000016614454043317665425_" cx="113.9348" cy="114.6216" r="23.1919" gradientTransform="matrix(0.9867 0 0 1 3.2377 0)" gradientUnits="userSpaceOnUse">
			<stop  offset="0" style="stop-color:#FFF100"/>
			<stop  offset="0.3641" style="stop-color:#9E9500"/>
			<stop  offset="0.8042" style="stop-color:#2D2B00"/>
			<stop  offset="1" style="stop-color:#000000"/>
		</radialGradient>
		
			<ellipse style="opacity:0.25;fill:url(#SVGID_00000158028368804271727330000016614454043317665425_);" cx="115.7" cy="114.6" rx="22.9" ry="23.2"/>
		
			<radialGradient id="SVGID_00000090268424103629348020000017415312693352429225_" cx="73.9978" cy="178.0258" r="23.1919" gradientTransform="matrix(0.9867 0 0 1 3.2377 0)" gradientUnits="userSpaceOnUse">
			<stop  offset="0" style="stop-color:#FFF100"/>
			<stop  offset="0.3641" style="stop-color:#9E9500"/>
			<stop  offset="0.8042" style="stop-color:#2D2B00"/>
			<stop  offset="1" style="stop-color:#000000"/>
		</radialGradient>
		
			<ellipse style="opacity:0.25;fill:url(#SVGID_00000090268424103629348020000017415312693352429225_);" cx="76.3" cy="178" rx="22.9" ry="23.2"/>
		
			<radialGradient id="SVGID_00000178893066637379106430000008609444982311069112_" cx="220.3947" cy="146.9406" r="23.1919" gradientTransform="matrix(0.9867 0 0 1 3.2377 0)" gradientUnits="userSpaceOnUse">
			<stop  offset="0" style="stop-color:#FFF100"/>
			<stop  offset="0.3641" style="stop-color:#9E9500"/>
			<stop  offset="0.8042" style="stop-color:#2D2B00"/>
			<stop  offset="1" style="stop-color:#000000"/>
		</radialGradient>
		
			<ellipse style="opacity:0.25;fill:url(#SVGID_00000178893066637379106430000008609444982311069112_);" cx="220.7" cy="146.9" rx="22.9" ry="23.2"/>
		
			<radialGradient id="SVGID_00000114784488157413118320000015077291963616785823_" cx="90.1706" cy="153.3064" r="23.1919" gradientTransform="matrix(0.9867 0 0 1 3.2377 0)" gradientUnits="userSpaceOnUse">
			<stop  offset="0" style="stop-color:#FFF100"/>
			<stop  offset="0.3641" style="stop-color:#9E9500"/>
			<stop  offset="0.8042" style="stop-color:#2D2B00"/>
			<stop  offset="1" style="stop-color:#000000"/>
		</radialGradient>
		
			<ellipse style="opacity:0.25;fill:url(#SVGID_00000114784488157413118320000015077291963616785823_);" cx="92.2" cy="153.3" rx="22.9" ry="23.2"/>
		
			<radialGradient id="SVGID_00000086668138001411582940000012914198957215194261_" cx="163.5057" cy="132.5328" r="14.0539" gradientTransform="matrix(0.9867 0 0 1 3.2377 0)" gradientUnits="userSpaceOnUse">
			<stop  offset="0" style="stop-color:#FFF100"/>
			<stop  offset="0.3641" style="stop-color:#9E9500"/>
			<stop  offset="0.8042" style="stop-color:#2D2B00"/>
			<stop  offset="1" style="stop-color:#000000"/>
		</radialGradient>
		
			<ellipse style="opacity:0.25;fill:url(#SVGID_00000086668138001411582940000012914198957215194261_);" cx="164.6" cy="132.5" rx="13.9" ry="14.1"/>
	</g>
</g>
</svg>
