<?xml version="1.0" encoding="utf-8"?>
<!-- Generator: Adobe Illustrator 26.0.2, SVG Export Plug-In . SVG Version: 6.00 Build 0)  -->
<svg version="1.1" id="Layer_1" xmlns="http://www.w3.org/2000/svg" xmlns:xlink="http://www.w3.org/1999/xlink" x="0px" y="0px"
	 viewBox="0 0 245.5 161.5" style="enable-background:new 0 0 245.5 161.5;" xml:space="preserve">
<style type="text/css">
	.st0{opacity:0.25;fill:url(#SVGID_1_);enable-background:new    ;}
	.st1{fill:#FFFFFF;}
	.st2{opacity:0.63;fill:url(#SVGID_00000139978255625895863490000005811122151266826160_);}
	.st3{opacity:0.63;fill:url(#SVGID_00000107590413475851363300000017005798686162418068_);}
	.st4{opacity:0.63;fill:url(#SVGID_00000103247311192137127190000004609110637490878088_);}
	.st5{opacity:0.63;fill:url(#SVGID_00000157302009954772691970000015584009369432853937_);}
	.st6{opacity:0.63;fill:url(#SVGID_00000119837746137144340530000014046668466480417430_);}
	.st7{opacity:0.63;fill:url(#SVGID_00000018238656768241850790000002779964528513313431_);}
	.st8{opacity:0.63;fill:url(#SVGID_00000022530079448163973140000013243209785604238518_);}
	.st9{opacity:0.63;fill:url(#SVGID_00000178906942308543438200000016242444058746047140_);}
	.st10{opacity:0.63;fill:url(#SVGID_00000126307259057393682920000003253398372460799402_);}
	.st11{opacity:0.63;fill:url(#SVGID_00000100344436560427449490000015027488399596408237_);}
	.st12{opacity:0.63;fill:url(#SVGID_00000163788051441314624270000013937673371274047666_);}
	.st13{opacity:0.63;fill:url(#SVGID_00000158718745576953814880000010429320939520875660_);}
	.st14{opacity:0.25;fill:url(#SVGID_00000086693373930511886620000003047508227283666050_);}
	.st15{opacity:0.25;fill:url(#SVGID_00000096039146912591804120000009009075437407614352_);}
	.st16{opacity:0.25;fill:url(#SVGID_00000008130799646174803440000001796653213230845077_);}
	.st17{opacity:0.25;fill:url(#SVGID_00000000919275648331558340000009934258822161985691_);}
	.st18{opacity:0.63;fill:url(#SVGID_00000042729731321073239730000000769998746047928451_);}
	.st19{opacity:0.63;fill:url(#SVGID_00000109711235354207108090000011384729408354390184_);}
	.st20{opacity:0.63;fill:url(#SVGID_00000120559440822785637030000013600100540589109890_);}
	.st21{opacity:0.63;fill:url(#SVGID_00000087390829647444149650000005525231542378667652_);}
	.st22{opacity:0.63;fill:url(#SVGID_00000054233102652480362590000000159876915082992531_);}
	.st23{opacity:0.63;fill:url(#SVGID_00000143575840071309518580000003674936231523717767_);}
	.st24{opacity:0.63;fill:url(#SVGID_00000079465199838839842820000000268382539814439098_);}
	.st25{opacity:0.63;fill:url(#SVGID_00000168831116491274350170000015734085611519645601_);}
	.st26{opacity:0.63;fill:url(#SVGID_00000106840978619991505520000001594984820664528820_);}
	.st27{opacity:0.63;fill:url(#SVGID_00000119834657871096048470000014599300466135578296_);}
	.st28{opacity:0.63;fill:url(#SVGID_00000149375516782393157880000008940176299826297248_);}
	.st29{opacity:0.63;fill:url(#SVGID_00000031885892833366067280000007877786958153752216_);}
	.st30{opacity:0.63;fill:url(#SVGID_00000037670445066974590710000017836608100037531319_);}
	.st31{opacity:0.63;fill:url(#SVGID_00000111876573456374397270000018372129300429143457_);}
	.st32{opacity:0.63;fill:url(#SVGID_00000129889621533512399060000017570429546569084581_);}
	.st33{opacity:0.63;fill:url(#SVGID_00000136398297673613947260000011826015778465974168_);}
	.st34{opacity:0.63;fill:url(#SVGID_00000013910394359747944370000012342482310677458323_);}
	.st35{opacity:0.63;fill:url(#SVGID_00000132080283242679934790000001075622780418530958_);}
	.st36{opacity:0.63;fill:url(#SVGID_00000101813853894789341470000002815506370766026894_);}
	.st37{opacity:0.63;fill:url(#SVGID_00000008828664855398734780000010681531212586024591_);}
	.st38{opacity:0.63;fill:url(#SVGID_00000077289900033480486330000013772194255294775943_);}
	.st39{opacity:0.63;fill:url(#SVGID_00000173841245397282346170000007593288995836093630_);}
	.st40{opacity:0.63;fill:url(#SVGID_00000182513086784326921970000003772524488458363582_);}
	.st41{opacity:0.63;fill:url(#SVGID_00000010288012810428641650000013534263952966590393_);}
	.st42{opacity:0.63;fill:url(#SVGID_00000170995001561649813830000008854445319376548272_);}
	.st43{opacity:0.63;fill:url(#SVGID_00000183927806197606236370000013568872049468938373_);}
	.st44{opacity:0.63;fill:url(#SVGID_00000060742170236914189360000011014741610877310655_);}
	.st45{opacity:0.63;fill:url(#SVGID_00000029007775216496159520000013320637237649778352_);}
	.st46{opacity:0.63;fill:url(#SVGID_00000103953486179428348570000013850722582891204015_);}
	.st47{opacity:0.63;fill:url(#SVGID_00000085232764635762941740000014062692894478596532_);}
</style>
<radialGradient id="SVGID_1_" cx="70.4346" cy="12.6684" r="27.1171" fx="70.4346" fy="20.2989" gradientTransform="matrix(1.18 0 0 -1 26.05 96.9669)" gradientUnits="userSpaceOnUse">
	<stop  offset="0" style="stop-color:#FFF100"/>
	<stop  offset="0.36" style="stop-color:#9E9500"/>
	<stop  offset="0.8" style="stop-color:#2D2B00"/>
	<stop  offset="1" style="stop-color:#000000"/>
</radialGradient>
<ellipse class="st0" cx="109.2" cy="84.3" rx="32" ry="27.1"/>
<g transform="translate(100.05 79.46) scale(0.54 0.58)">
	
		<image style="overflow:visible;enable-background:new    ;" width="135" height="129" id="image" xlink:href="6836FD2426246860.png"  transform="matrix(0.54 0 0 0.58 102.7028 77.7184)">
	</image>
</g>
<g transform="matrix(-0.06, 0.54, -0.58, -0.06, 245.51, 58.72)">
	
		<image style="overflow:visible;enable-background:new    ;" width="135" height="129" id="image_00000062175876312476796560000016045545937213955515_" xlink:href="6836FD2426246861.png"  transform="matrix(-6.000000e-02 0.54 -0.58 -6.000000e-02 248.1628 56.9784)">
	</image>
</g>
<g transform="translate(128.58 30.34) rotate(27.56) scale(0.54 0.58)">
	
		<image style="overflow:visible;enable-background:new    ;" width="135" height="129" id="image_00000095313856824508945440000002084382271796626823_" xlink:href="6836FD2426246867.png"  transform="matrix(0.4787 0.2498 -0.2684 0.5142 131.2328 28.5984)">
	</image>
</g>
<g transform="matrix(-0.06, 0.54, -0.58, -0.06, 221.04, 88.83)">
	
		<image style="overflow:visible;enable-background:new    ;" width="135" height="129" id="image_00000127009843544101083280000016753041831978086295_" xlink:href="6836FD2426246862.png"  transform="matrix(-6.000000e-02 0.54 -0.58 -6.000000e-02 223.6928 87.0884)">
	</image>
</g>
<g transform="translate(88.55) rotate(28.46) scale(0.54 0.58)">
	
		<image style="overflow:visible;enable-background:new    ;" width="135" height="129" id="image_00000120557137092011194160000007442854790048782989_" xlink:href="6836FD242624686E.png"  transform="matrix(0.4747 0.2573 -0.2764 0.5099 91.2028 -1.7416)">
	</image>
</g>
<g transform="translate(0 59.26) scale(0.54 0.58)">
	
		<image style="overflow:visible;enable-background:new    ;" width="135" height="129" id="image_00000163756558064774428500000015557243705058063757_" xlink:href="6836FD242624686F.png"  transform="matrix(0.54 0 0 0.58 2.6528 57.5184)">
	</image>
</g>
<g transform="translate(36.56 70.37) scale(0.54 0.58)">
	
		<image style="overflow:visible;enable-background:new    ;" width="135" height="129" id="image_00000116948995036469638330000002849290055851270572_" xlink:href="6836FD2426246864.png"  transform="matrix(0.54 0 0 0.58 39.2128 68.6284)">
	</image>
</g>
<g>
	<g>
		<path class="st1" d="M80.9,99.6c0,0-2.7,6.8,3.2,8.3c0,0-5.9-0.9-8.1,5.2c0,0,2.8-6.6-3-8.2C73.1,104.9,78.6,106.3,80.9,99.6z"/>
		
			<radialGradient id="SVGID_00000147923089338620673510000001242506605309729435_" cx="-143.965" cy="6069.4771" r="87.6412" gradientTransform="matrix(0.2351 6.347685e-02 -2.502520e-02 6.949837e-02 264.4636 -306.5989)" gradientUnits="userSpaceOnUse">
			<stop  offset="3.631280e-02" style="stop-color:#FFFF00"/>
			<stop  offset="0.1516" style="stop-color:#D1D100"/>
			<stop  offset="0.3266" style="stop-color:#939300"/>
			<stop  offset="0.4943" style="stop-color:#5E5E00"/>
			<stop  offset="0.6499" style="stop-color:#353500"/>
			<stop  offset="0.7907" style="stop-color:#181800"/>
			<stop  offset="0.9121" style="stop-color:#060600"/>
			<stop  offset="1" style="stop-color:#000000"/>
		</radialGradient>
		<path style="opacity:0.63;fill:url(#SVGID_00000147923089338620673510000001242506605309729435_);" d="M100.3,112
			c-1.1,3.2-11.5,3.1-23.3,0c-11.7-3.2-20.6-8.4-19.8-11.6c0.8-3.3,11.3-3.4,23.3-0.1C92.6,103.5,101.4,108.8,100.3,112z"/>
		
			<radialGradient id="SVGID_00000027599970364949927200000009419500316194953118_" cx="1089.0599" cy="-11298.0918" r="87.6402" gradientTransform="matrix(0.1102 -0.3058 8.029322e-02 2.166074e-02 865.8256 683.7968)" gradientUnits="userSpaceOnUse">
			<stop  offset="3.631280e-02" style="stop-color:#FFFF00"/>
			<stop  offset="0.1516" style="stop-color:#D1D100"/>
			<stop  offset="0.3266" style="stop-color:#939300"/>
			<stop  offset="0.4943" style="stop-color:#5E5E00"/>
			<stop  offset="0.6499" style="stop-color:#353500"/>
			<stop  offset="0.7907" style="stop-color:#181800"/>
			<stop  offset="0.9121" style="stop-color:#060600"/>
			<stop  offset="1" style="stop-color:#000000"/>
		</radialGradient>
		<path style="opacity:0.63;fill:url(#SVGID_00000027599970364949927200000009419500316194953118_);" d="M88.9,78.1
			c3.7,1,2.1,14.1-3.4,29.4c-5.5,15.3-13,27.2-16.9,26.7c-3.9-0.5-2.5-13.7,3.2-29.4C77.5,89,85.2,77.1,88.9,78.1z"/>
		
			<radialGradient id="SVGID_00000024704820182850399770000015354671007598054571_" cx="2365.896" cy="-66762.2188" r="87.4903" gradientTransform="matrix(-7.971348e-02 -0.3128 1.526634e-02 -2.927127e-03 1286.5386 650.6755)" gradientUnits="userSpaceOnUse">
			<stop  offset="3.631280e-02" style="stop-color:#FFFF00"/>
			<stop  offset="0.1516" style="stop-color:#D1D100"/>
			<stop  offset="0.3266" style="stop-color:#939300"/>
			<stop  offset="0.4943" style="stop-color:#5E5E00"/>
			<stop  offset="0.6499" style="stop-color:#353500"/>
			<stop  offset="0.7907" style="stop-color:#181800"/>
			<stop  offset="0.9121" style="stop-color:#060600"/>
			<stop  offset="1" style="stop-color:#000000"/>
		</radialGradient>
		<path style="opacity:0.63;fill:url(#SVGID_00000024704820182850399770000015354671007598054571_);" d="M71.4,77.4
			c0.7-0.2,4.5,12.4,8.4,28c4,15.6,6.7,28.8,6.2,29.4c-0.6,0.6-4.4-11.9-8.5-28C73.5,90.7,70.7,77.5,71.4,77.4z"/>
		
			<radialGradient id="SVGID_00000085235069624891957410000003780974512800988032_" cx="246.9613" cy="-17458.7266" r="87.5314" gradientTransform="matrix(0.2907 -0.1982 9.662240e-03 1.062129e-02 175.6197 340.4655)" gradientUnits="userSpaceOnUse">
			<stop  offset="3.631280e-02" style="stop-color:#FFFF00"/>
			<stop  offset="0.1516" style="stop-color:#D1D100"/>
			<stop  offset="0.3266" style="stop-color:#939300"/>
			<stop  offset="0.4943" style="stop-color:#5E5E00"/>
			<stop  offset="0.6499" style="stop-color:#353500"/>
			<stop  offset="0.7907" style="stop-color:#181800"/>
			<stop  offset="0.9121" style="stop-color:#060600"/>
			<stop  offset="1" style="stop-color:#000000"/>
		</radialGradient>
		<path style="opacity:0.63;fill:url(#SVGID_00000085235069624891957410000003780974512800988032_);" d="M105.4,87.9
			c0.5,0.5-10.9,8.9-25.5,18.8c-14.5,9.9-27,17.8-27.9,17.6c-0.9-0.2,10.5-8.6,25.4-18.8C92.5,95.3,104.9,87.4,105.4,87.9z"/>
		
			<radialGradient id="SVGID_00000030458184953302723400000007757975125145605293_" cx="-54.4042" cy="42419.1562" r="87.6241" gradientTransform="matrix(0.2419 6.531676e-02 -4.637875e-03 1.287936e-02 288.4952 -436.3303)" gradientUnits="userSpaceOnUse">
			<stop  offset="3.631280e-02" style="stop-color:#FFFF00"/>
			<stop  offset="0.1516" style="stop-color:#D1D100"/>
			<stop  offset="0.3266" style="stop-color:#939300"/>
			<stop  offset="0.4943" style="stop-color:#5E5E00"/>
			<stop  offset="0.6499" style="stop-color:#353500"/>
			<stop  offset="0.7907" style="stop-color:#181800"/>
			<stop  offset="0.9121" style="stop-color:#060600"/>
			<stop  offset="1" style="stop-color:#000000"/>
		</radialGradient>
		<path style="opacity:0.63;fill:url(#SVGID_00000030458184953302723400000007757975125145605293_);" d="M100.8,112.5
			c-0.2,0.6-10.1-1.6-22.2-4.8c-12.1-3.3-22-6.5-22.1-7.1c-0.1-0.7,9.8,1.5,22.2,4.8C91.1,108.6,101,111.9,100.8,112.5z"/>
		
			<radialGradient id="SVGID_00000026878344621602609550000012388480088000720040_" cx="1089.3619" cy="-51311.9883" r="87.6176" gradientTransform="matrix(0.1102 -0.3058 1.487985e-02 4.014346e-03 722.4642 645.2339)" gradientUnits="userSpaceOnUse">
			<stop  offset="3.631280e-02" style="stop-color:#FFFF00"/>
			<stop  offset="0.1516" style="stop-color:#D1D100"/>
			<stop  offset="0.3266" style="stop-color:#939300"/>
			<stop  offset="0.4943" style="stop-color:#5E5E00"/>
			<stop  offset="0.6499" style="stop-color:#353500"/>
			<stop  offset="0.7907" style="stop-color:#181800"/>
			<stop  offset="0.9121" style="stop-color:#060600"/>
			<stop  offset="1" style="stop-color:#000000"/>
		</radialGradient>
		<path style="opacity:0.63;fill:url(#SVGID_00000026878344621602609550000012388480088000720040_);" d="M89.2,78.1
			c0.7,0.2-3.2,12.7-8.7,27.9c-5.5,15.3-10.6,27.9-11.5,28.1c-0.9,0.3,3-12.2,8.7-27.9C83.3,90.6,88.5,78,89.2,78.1z"/>
	</g>
	<g>
		<path class="st1" d="M180.9,105.3c0,0,0.9,7.8,7.2,6.9c0,0-5.9,1.5-4.9,8.5c0,0-0.8-7.7-7-6.9
			C176.3,113.7,182.1,112.8,180.9,105.3z"/>
		
			<radialGradient id="SVGID_00000142884328858827671160000016529409852228469161_" cx="2419.2417" cy="-7253.229" r="87.5941" gradientTransform="matrix(0.2524 -3.253214e-02 1.210000e-02 7.930858e-02 -340.6831 766.5092)" gradientUnits="userSpaceOnUse">
			<stop  offset="3.631280e-02" style="stop-color:#FFFF00"/>
			<stop  offset="0.1516" style="stop-color:#D1D100"/>
			<stop  offset="0.3266" style="stop-color:#939300"/>
			<stop  offset="0.4943" style="stop-color:#5E5E00"/>
			<stop  offset="0.6499" style="stop-color:#353500"/>
			<stop  offset="0.7907" style="stop-color:#181800"/>
			<stop  offset="0.9121" style="stop-color:#060600"/>
			<stop  offset="1" style="stop-color:#000000"/>
		</radialGradient>
		<path style="opacity:0.63;fill:url(#SVGID_00000142884328858827671160000016529409852228469161_);" d="M205.3,109.7
			c0.6,3.6-9.2,7.8-21.8,9.4c-12.6,1.6-23.6,0.1-24.5-3.5c-0.9-3.6,8.8-8,21.8-9.6S204.8,106,205.3,109.7z"/>
		
			<radialGradient id="SVGID_00000026869658413590360630000015315007575380656302_" cx="4116.0625" cy="-3794.1072" r="87.5917" gradientTransform="matrix(-5.320000e-02 -0.3486 8.630000e-02 -1.111974e-02 728.5754 1505.1165)" gradientUnits="userSpaceOnUse">
			<stop  offset="3.631280e-02" style="stop-color:#FFFF00"/>
			<stop  offset="0.1516" style="stop-color:#D1D100"/>
			<stop  offset="0.3266" style="stop-color:#939300"/>
			<stop  offset="0.4943" style="stop-color:#5E5E00"/>
			<stop  offset="0.6499" style="stop-color:#353500"/>
			<stop  offset="0.7907" style="stop-color:#181800"/>
			<stop  offset="0.9121" style="stop-color:#060600"/>
			<stop  offset="1" style="stop-color:#000000"/>
		</radialGradient>
		<path style="opacity:0.63;fill:url(#SVGID_00000026869658413590360630000015315007575380656302_);" d="M177.4,80.6
			c3.9-0.5,9.2,13.2,11.9,30.6c2.7,17.4,1.7,32.3-2.1,33.4c-3.9,1-9.4-12.6-12.1-30.5C172.3,96.1,173.4,81.1,177.4,80.6z"/>
		
			<radialGradient id="SVGID_00000168807785985805357430000010427662898507573933_" cx="4143.5186" cy="3836.7568" r="87.4852" gradientTransform="matrix(-0.2345 -0.2784 1.280000e-02 -9.097972e-03 1104.7141 1300.8644)" gradientUnits="userSpaceOnUse">
			<stop  offset="3.631280e-02" style="stop-color:#FFFF00"/>
			<stop  offset="0.1516" style="stop-color:#D1D100"/>
			<stop  offset="0.3266" style="stop-color:#939300"/>
			<stop  offset="0.4943" style="stop-color:#5E5E00"/>
			<stop  offset="0.6499" style="stop-color:#353500"/>
			<stop  offset="0.7907" style="stop-color:#181800"/>
			<stop  offset="0.9121" style="stop-color:#060600"/>
			<stop  offset="1" style="stop-color:#000000"/>
		</radialGradient>
		<path style="opacity:0.63;fill:url(#SVGID_00000168807785985805357430000010427662898507573933_);" d="M160.7,87
			c0.6-0.4,10.5,10.5,22.2,24.4c11.7,13.9,21,25.8,20.8,26.7c-0.2,0.8-10.2-10.1-22.2-24.4C169.4,99.4,160.1,87.5,160.7,87z"/>
		
			<radialGradient id="SVGID_00000125575909339790532240000014478948351161975727_" cx="3706.4897" cy="-24782.7344" r="87.6901" gradientTransform="matrix(0.1707 -0.3151 1.440000e-02 6.616707e-03 -93.6569 1444.5344)" gradientUnits="userSpaceOnUse">
			<stop  offset="3.631280e-02" style="stop-color:#FFFF00"/>
			<stop  offset="0.1516" style="stop-color:#D1D100"/>
			<stop  offset="0.3266" style="stop-color:#939300"/>
			<stop  offset="0.4943" style="stop-color:#5E5E00"/>
			<stop  offset="0.6499" style="stop-color:#353500"/>
			<stop  offset="0.7907" style="stop-color:#181800"/>
			<stop  offset="0.9121" style="stop-color:#060600"/>
			<stop  offset="1" style="stop-color:#000000"/>
		</radialGradient>
		<path style="opacity:0.63;fill:url(#SVGID_00000125575909339790532240000014478948351161975727_);" d="M197.8,83.7
			c0.7,0.3-5.7,13.3-14.2,29s-16.2,28.6-17.1,28.8c-0.9,0.2,5.4-12.8,14.2-29C189.5,96.3,197.2,83.4,197.8,83.7z"/>
		
			<radialGradient id="SVGID_00000180344676624068513350000004135259376138995864_" cx="2430.8237" cy="-29470.9727" r="87.5663" gradientTransform="matrix(0.2598 -3.345113e-02 2.200000e-03 1.470379e-02 -384.459 627.6295)" gradientUnits="userSpaceOnUse">
			<stop  offset="3.631280e-02" style="stop-color:#FFFF00"/>
			<stop  offset="0.1516" style="stop-color:#D1D100"/>
			<stop  offset="0.3266" style="stop-color:#939300"/>
			<stop  offset="0.4943" style="stop-color:#5E5E00"/>
			<stop  offset="0.6499" style="stop-color:#353500"/>
			<stop  offset="0.7907" style="stop-color:#181800"/>
			<stop  offset="0.9121" style="stop-color:#060600"/>
			<stop  offset="1" style="stop-color:#000000"/>
		</radialGradient>
		<path style="opacity:0.63;fill:url(#SVGID_00000180344676624068513350000004135259376138995864_);" d="M206.1,109.9
			c0.1,0.7-10.3,2.6-23.3,4.2c-13,1.7-23.9,2.5-24.4,1.9c-0.5-0.6,9.9-2.5,23.3-4.3C195,110.1,205.9,109.2,206.1,109.9z"/>
		
			<radialGradient id="SVGID_00000077282590814738730040000003861722131452362931_" cx="4115.7915" cy="-10789.4365" r="87.5686" gradientTransform="matrix(-5.320000e-02 -0.3486 1.600000e-02 -2.021771e-03 574.1014 1525.3541)" gradientUnits="userSpaceOnUse">
			<stop  offset="3.631280e-02" style="stop-color:#FFFF00"/>
			<stop  offset="0.1516" style="stop-color:#D1D100"/>
			<stop  offset="0.3266" style="stop-color:#939300"/>
			<stop  offset="0.4943" style="stop-color:#5E5E00"/>
			<stop  offset="0.6499" style="stop-color:#353500"/>
			<stop  offset="0.7907" style="stop-color:#181800"/>
			<stop  offset="0.9121" style="stop-color:#060600"/>
			<stop  offset="1" style="stop-color:#000000"/>
		</radialGradient>
		<path style="opacity:0.63;fill:url(#SVGID_00000077282590814738730040000003861722131452362931_);" d="M177.7,80.5
			c0.7-0.1,3.5,13.9,6.1,31.3c2.7,17.4,4.3,32,3.6,32.6c-0.7,0.6-3.4-13.4-6.1-31.3C178.5,95.3,176.9,80.7,177.7,80.5z"/>
	</g>
	
		<radialGradient id="SVGID_00000039829834477193765610000011558392613626567352_" cx="64.3543" cy="92.0695" r="27.0943" fx="64.8124" fy="99.6879" gradientTransform="matrix(1.1951 0 0 0.919 51.334 5.2638)" gradientUnits="userSpaceOnUse">
		<stop  offset="0" style="stop-color:#FFF100"/>
		<stop  offset="0.3641" style="stop-color:#9E9500"/>
		<stop  offset="0.8042" style="stop-color:#2D2B00"/>
		<stop  offset="1" style="stop-color:#000000"/>
	</radialGradient>
	
		<ellipse style="opacity:0.25;fill:url(#SVGID_00000039829834477193765610000011558392613626567352_);" cx="128.2" cy="89.9" rx="32.4" ry="24.9"/>
	
		<radialGradient id="SVGID_00000102530735922444653790000013519471936613050544_" cx="55.7987" cy="104.1175" r="23.1919" gradientTransform="matrix(1 0 0 0.919 0 5.2638)" gradientUnits="userSpaceOnUse">
		<stop  offset="0" style="stop-color:#FFF100"/>
		<stop  offset="0.3641" style="stop-color:#9E9500"/>
		<stop  offset="0.8042" style="stop-color:#2D2B00"/>
		<stop  offset="1" style="stop-color:#000000"/>
	</radialGradient>
	
		<ellipse style="opacity:0.25;fill:url(#SVGID_00000102530735922444653790000013519471936613050544_);" cx="55.8" cy="100.9" rx="23.2" ry="21.3"/>
	
		<radialGradient id="SVGID_00000140012467975384800220000001212192958211215256_" cx="69.9659" cy="117.8309" r="23.1919" gradientTransform="matrix(1 0 0 0.919 0 5.2638)" gradientUnits="userSpaceOnUse">
		<stop  offset="0" style="stop-color:#FFF100"/>
		<stop  offset="0.3641" style="stop-color:#9E9500"/>
		<stop  offset="0.8042" style="stop-color:#2D2B00"/>
		<stop  offset="1" style="stop-color:#000000"/>
	</radialGradient>
	
		<ellipse style="opacity:0.25;fill:url(#SVGID_00000140012467975384800220000001212192958211215256_);" cx="70" cy="113.5" rx="23.2" ry="21.3"/>
	
		<radialGradient id="SVGID_00000183242844950862275560000008281658099871205566_" cx="86.1387" cy="93.1115" r="23.1919" gradientTransform="matrix(1 0 0 0.919 0 5.2638)" gradientUnits="userSpaceOnUse">
		<stop  offset="0" style="stop-color:#FFF100"/>
		<stop  offset="0.3641" style="stop-color:#9E9500"/>
		<stop  offset="0.8042" style="stop-color:#2D2B00"/>
		<stop  offset="1" style="stop-color:#000000"/>
	</radialGradient>
	
		<ellipse style="opacity:0.25;fill:url(#SVGID_00000183242844950862275560000008281658099871205566_);" cx="86.1" cy="90.8" rx="23.2" ry="21.3"/>
</g>
<g>
	<path class="st1" d="M14.1,92.5c0,0-0.1,6.6,2.8,6.5c0,0-2.9,0-2.8,3.3c0,0-0.2-3.3-3.1-3.2C11.1,99,14,99.1,14.1,92.5z"/>
	
		<radialGradient id="SVGID_00000036934744358500409730000009577557971704162968_" cx="-1101.0886" cy="757.3809" r="38.6926" gradientTransform="matrix(0.2549 -1.000000e-03 4.000000e-04 8.710000e-02 294.3273 31.7078)" gradientUnits="userSpaceOnUse">
		<stop  offset="3.631280e-02" style="stop-color:#FFFF00"/>
		<stop  offset="0.1516" style="stop-color:#D1D100"/>
		<stop  offset="0.3266" style="stop-color:#939300"/>
		<stop  offset="0.4943" style="stop-color:#5E5E00"/>
		<stop  offset="0.6499" style="stop-color:#353500"/>
		<stop  offset="0.7907" style="stop-color:#181800"/>
		<stop  offset="0.9121" style="stop-color:#060600"/>
		<stop  offset="1" style="stop-color:#000000"/>
	</radialGradient>
	<path style="opacity:0.63;fill:url(#SVGID_00000036934744358500409730000009577557971704162968_);" d="M24.3,98.8
		c0,1.8-4.5,3.2-10.2,3.2c-5.6,0-10.3-1.4-10.5-3.1c-0.2-1.8,4.4-3.3,10.1-3.3C19.6,95.5,24.3,97,24.3,98.8z"/>
	
		<radialGradient id="SVGID_00000103983937624109435070000012050799210121717632_" cx="2294.0312" cy="-14087.2598" r="38.6952" gradientTransform="matrix(-1.600000e-03 -0.383 8.710000e-02 -4.000000e-04 1244.6335 971.7559)" gradientUnits="userSpaceOnUse">
		<stop  offset="3.631280e-02" style="stop-color:#FFFF00"/>
		<stop  offset="0.1516" style="stop-color:#D1D100"/>
		<stop  offset="0.3266" style="stop-color:#939300"/>
		<stop  offset="0.4943" style="stop-color:#5E5E00"/>
		<stop  offset="0.6499" style="stop-color:#353500"/>
		<stop  offset="0.7907" style="stop-color:#181800"/>
		<stop  offset="0.9121" style="stop-color:#060600"/>
		<stop  offset="1" style="stop-color:#000000"/>
	</radialGradient>
	<path style="opacity:0.63;fill:url(#SVGID_00000103983937624109435070000012050799210121717632_);" d="M13.9,83.3
		c1.8,0,3.2,6.8,3.2,15.3s-1.3,15.5-3.1,15.8c-1.8,0.3-3.3-6.6-3.3-15.3C10.7,90.3,12.2,83.3,13.9,83.3z"/>
	
		<radialGradient id="SVGID_00000003810876230918469460000008248474887433626547_" cx="3726.9507" cy="-65725.9453" r="38.6485" gradientTransform="matrix(-0.1915 -0.3317 1.400000e-02 -8.100000e-03 1647.837 802.6262)" gradientUnits="userSpaceOnUse">
		<stop  offset="3.631280e-02" style="stop-color:#FFFF00"/>
		<stop  offset="0.1516" style="stop-color:#D1D100"/>
		<stop  offset="0.3266" style="stop-color:#939300"/>
		<stop  offset="0.4943" style="stop-color:#5E5E00"/>
		<stop  offset="0.6499" style="stop-color:#353500"/>
		<stop  offset="0.7907" style="stop-color:#181800"/>
		<stop  offset="0.9121" style="stop-color:#060600"/>
		<stop  offset="1" style="stop-color:#000000"/>
	</radialGradient>
	<path style="opacity:0.63;fill:url(#SVGID_00000003810876230918469460000008248474887433626547_);" d="M6.2,85.3
		c0.3-0.2,3.9,5.6,8.1,12.9c4.2,7.3,7.5,13.6,7.4,13.9c-0.2,0.4-3.8-5.4-8.2-12.9C9.2,91.8,5.9,85.5,6.2,85.3z"/>
	
		<radialGradient id="SVGID_00000103262859219937195950000012677329214677488795_" cx="876.3666" cy="-46190.5195" r="38.7133" gradientTransform="matrix(0.2154 -0.3167 1.330000e-02 9.100000e-03 439.5273 796.6559)" gradientUnits="userSpaceOnUse">
		<stop  offset="3.631280e-02" style="stop-color:#FFFF00"/>
		<stop  offset="0.1516" style="stop-color:#D1D100"/>
		<stop  offset="0.3266" style="stop-color:#939300"/>
		<stop  offset="0.4943" style="stop-color:#5E5E00"/>
		<stop  offset="0.6499" style="stop-color:#353500"/>
		<stop  offset="0.7907" style="stop-color:#181800"/>
		<stop  offset="0.9121" style="stop-color:#060600"/>
		<stop  offset="1" style="stop-color:#000000"/>
	</radialGradient>
	<path style="opacity:0.63;fill:url(#SVGID_00000103262859219937195950000012677329214677488795_);" d="M22.7,86
		c0.3,0.2-3.4,6-8.1,13c-4.8,7-8.9,12.7-9.3,12.7c-0.4,0,3.2-5.8,8.1-13C18.2,91.5,22.4,85.8,22.7,86z"/>
	
		<radialGradient id="SVGID_00000003817044627584803420000008688003959710155153_" cx="-985.4731" cy="13835.168" r="38.7323" gradientTransform="matrix(0.2623 -1.100000e-03 1.000000e-04 1.610000e-02 271.0696 -124.8507)" gradientUnits="userSpaceOnUse">
		<stop  offset="3.631280e-02" style="stop-color:#FFFF00"/>
		<stop  offset="0.1516" style="stop-color:#D1D100"/>
		<stop  offset="0.3266" style="stop-color:#939300"/>
		<stop  offset="0.4943" style="stop-color:#5E5E00"/>
		<stop  offset="0.6499" style="stop-color:#353500"/>
		<stop  offset="0.7907" style="stop-color:#181800"/>
		<stop  offset="0.9121" style="stop-color:#060600"/>
		<stop  offset="1" style="stop-color:#000000"/>
	</radialGradient>
	<path style="opacity:0.63;fill:url(#SVGID_00000003817044627584803420000008688003959710155153_);" d="M24.6,98.9
		c0,0.3-4.7,0.6-10.5,0.6c-5.8,0-10.6-0.2-10.8-0.5c-0.2-0.3,4.5-0.6,10.5-0.6C19.7,98.4,24.6,98.6,24.6,98.9z"/>
	
		<radialGradient id="SVGID_00000064341538503697930670000012264190473960719756_" cx="2298.5325" cy="-66506.2578" r="38.7303" gradientTransform="matrix(-1.600000e-03 -0.383 1.610000e-02 -1.000000e-04 1088.5432 972.4634)" gradientUnits="userSpaceOnUse">
		<stop  offset="3.631280e-02" style="stop-color:#FFFF00"/>
		<stop  offset="0.1516" style="stop-color:#D1D100"/>
		<stop  offset="0.3266" style="stop-color:#939300"/>
		<stop  offset="0.4943" style="stop-color:#5E5E00"/>
		<stop  offset="0.6499" style="stop-color:#353500"/>
		<stop  offset="0.7907" style="stop-color:#181800"/>
		<stop  offset="0.9121" style="stop-color:#060600"/>
		<stop  offset="1" style="stop-color:#000000"/>
	</radialGradient>
	<path style="opacity:0.63;fill:url(#SVGID_00000064341538503697930670000012264190473960719756_);" d="M14.1,83.3
		c0.3,0,0.6,6.8,0.6,15.3c0,8.4-0.2,15.5-0.5,15.7c-0.3,0.3-0.6-6.6-0.7-15.3C13.5,90.3,13.7,83.3,14.1,83.3z"/>
</g>
<g>
	<path class="st1" d="M132.4,37.1c0,0-4.3,4.9-2.1,6.8c0,0-2.2-1.9-4.2,0.7c0,0,2-2.6-0.2-4.5C125.9,40.1,128,42,132.4,37.1z"/>
	
		<radialGradient id="SVGID_00000147902517843174947180000004422187789763783837_" cx="-722.5269" cy="-189.7808" r="38.6926" gradientTransform="matrix(0.1948 0.1644 -5.611551e-02 6.661545e-02 258.3722 173.1699)" gradientUnits="userSpaceOnUse">
		<stop  offset="3.631280e-02" style="stop-color:#FFFF00"/>
		<stop  offset="0.1516" style="stop-color:#D1D100"/>
		<stop  offset="0.3266" style="stop-color:#939300"/>
		<stop  offset="0.4943" style="stop-color:#5E5E00"/>
		<stop  offset="0.6499" style="stop-color:#353500"/>
		<stop  offset="0.7907" style="stop-color:#181800"/>
		<stop  offset="0.9121" style="stop-color:#060600"/>
		<stop  offset="1" style="stop-color:#000000"/>
	</radialGradient>
	<path style="opacity:0.63;fill:url(#SVGID_00000147902517843174947180000004422187789763783837_);" d="M136.1,48.5
		c-1.1,1.3-5.5-0.5-9.8-4.1c-4.3-3.6-7-7.7-6-9.2c1-1.5,5.4,0.3,9.9,4.1C134.6,43,137.3,47.1,136.1,48.5z"/>
	
		<radialGradient id="SVGID_00000005976681671830837760000005620287780062547096_" cx="2509.262" cy="-12979.7871" r="38.6952" gradientTransform="matrix(0.2469 -0.2928 6.661545e-02 5.611551e-02 373.4251 1504.9113)" gradientUnits="userSpaceOnUse">
		<stop  offset="3.631280e-02" style="stop-color:#FFFF00"/>
		<stop  offset="0.1516" style="stop-color:#D1D100"/>
		<stop  offset="0.3266" style="stop-color:#939300"/>
		<stop  offset="0.4943" style="stop-color:#5E5E00"/>
		<stop  offset="0.6499" style="stop-color:#353500"/>
		<stop  offset="0.7907" style="stop-color:#181800"/>
		<stop  offset="0.9121" style="stop-color:#060600"/>
		<stop  offset="1" style="stop-color:#000000"/>
	</radialGradient>
	<path style="opacity:0.63;fill:url(#SVGID_00000005976681671830837760000005620287780062547096_);" d="M138.3,29.9
		c1.3,1.1-2,7.3-7.4,13.7s-11.1,10.9-12.6,10c-1.5-1,1.8-7.1,7.4-13.8C131.2,33.3,136.9,28.8,138.3,29.9z"/>
	
		<radialGradient id="SVGID_00000113329554829359696280000004974844357125128588_" cx="3788.5693" cy="-58017.625" r="38.6485" gradientTransform="matrix(6.897078e-02 -0.3767 1.591266e-02 2.897784e-03 790.1582 1637.2421)" gradientUnits="userSpaceOnUse">
		<stop  offset="3.631280e-02" style="stop-color:#FFFF00"/>
		<stop  offset="0.1516" style="stop-color:#D1D100"/>
		<stop  offset="0.3266" style="stop-color:#939300"/>
		<stop  offset="0.4943" style="stop-color:#5E5E00"/>
		<stop  offset="0.6499" style="stop-color:#353500"/>
		<stop  offset="0.7907" style="stop-color:#181800"/>
		<stop  offset="0.9121" style="stop-color:#060600"/>
		<stop  offset="1" style="stop-color:#000000"/>
	</radialGradient>
	<path style="opacity:0.63;fill:url(#SVGID_00000113329554829359696280000004974844357125128588_);" d="M131,26.5
		c0.3,0-0.7,6.8-2.2,15.1c-1.5,8.3-3,15.2-3.4,15.4c-0.4,0.2,0.6-6.6,2.2-15.1C129.2,33.4,130.7,26.5,131,26.5z"/>
	
		<radialGradient id="SVGID_00000000917575035877440910000007182398687576592051_" cx="1196.6576" cy="-44150.9805" r="38.7133" gradientTransform="matrix(0.3692 -0.1017 4.237833e-03 1.554802e-02 -126.5144 849.994)" gradientUnits="userSpaceOnUse">
		<stop  offset="3.631280e-02" style="stop-color:#FFFF00"/>
		<stop  offset="0.1516" style="stop-color:#D1D100"/>
		<stop  offset="0.3266" style="stop-color:#939300"/>
		<stop  offset="0.4943" style="stop-color:#5E5E00"/>
		<stop  offset="0.6499" style="stop-color:#353500"/>
		<stop  offset="0.7907" style="stop-color:#181800"/>
		<stop  offset="0.9121" style="stop-color:#060600"/>
		<stop  offset="1" style="stop-color:#000000"/>
	</radialGradient>
	<path style="opacity:0.63;fill:url(#SVGID_00000000917575035877440910000007182398687576592051_);" d="M143.2,37.7
		c0.1,0.3-6.4,2.4-14.6,4.6c-8.1,2.2-15,3.9-15.3,3.6c-0.3-0.3,6.2-2.3,14.6-4.6S143.1,37.3,143.2,37.7z"/>
	
		<radialGradient id="SVGID_00000062912859188084542730000001682522172207278254_" cx="-617.0828" cy="8712.7393" r="38.7323" gradientTransform="matrix(0.2005 0.1691 -1.035282e-02 1.233042e-02 342.0664 38.8316)" gradientUnits="userSpaceOnUse">
		<stop  offset="3.631280e-02" style="stop-color:#FFFF00"/>
		<stop  offset="0.1516" style="stop-color:#D1D100"/>
		<stop  offset="0.3266" style="stop-color:#939300"/>
		<stop  offset="0.4943" style="stop-color:#5E5E00"/>
		<stop  offset="0.6499" style="stop-color:#353500"/>
		<stop  offset="0.7907" style="stop-color:#181800"/>
		<stop  offset="0.9121" style="stop-color:#060600"/>
		<stop  offset="1" style="stop-color:#000000"/>
	</radialGradient>
	<path style="opacity:0.63;fill:url(#SVGID_00000062912859188084542730000001682522172207278254_);" d="M136.2,48.8
		c-0.2,0.3-4-2.6-8.4-6.3c-4.4-3.7-7.9-7-7.9-7.4c0.1-0.4,3.8,2.4,8.4,6.3C132.9,45.2,136.4,48.5,136.2,48.8z"/>
	
		<radialGradient id="SVGID_00000121272014269983653610000015625922324871781292_" cx="2513.3555" cy="-60514.9414" r="38.7303" gradientTransform="matrix(0.2469 -0.2928 1.233042e-02 1.035282e-02 254.0507 1404.3407)" gradientUnits="userSpaceOnUse">
		<stop  offset="3.631280e-02" style="stop-color:#FFFF00"/>
		<stop  offset="0.1516" style="stop-color:#D1D100"/>
		<stop  offset="0.3266" style="stop-color:#939300"/>
		<stop  offset="0.4943" style="stop-color:#5E5E00"/>
		<stop  offset="0.6499" style="stop-color:#353500"/>
		<stop  offset="0.7907" style="stop-color:#181800"/>
		<stop  offset="0.9121" style="stop-color:#060600"/>
		<stop  offset="1" style="stop-color:#000000"/>
	</radialGradient>
	<path style="opacity:0.63;fill:url(#SVGID_00000121272014269983653610000015625922324871781292_);" d="M138.4,30
		c0.3,0.2-4,5.6-9.4,12.1c-5.4,6.5-10.2,11.7-10.6,11.7c-0.4,0,3.8-5.4,9.4-12.1C133.4,35,138.1,29.8,138.4,30z"/>
</g>
<g>
	<path class="st1" d="M221.6,100.1c0,0,2.2,6.2,4.9,5.1c0,0-2.7,1-1.4,4c0,0-1.3-3-4-2C221,107.3,223.8,106.3,221.6,100.1z"/>
	
		<radialGradient id="SVGID_00000120542820683821090900000008142924664004002194_" cx="-278.4438" cy="850.1995" r="38.6926" gradientTransform="matrix(0.2388 -8.921045e-02 3.053814e-02 8.157200e-02 264.2159 11.8463)" gradientUnits="userSpaceOnUse">
		<stop  offset="3.631280e-02" style="stop-color:#FFFF00"/>
		<stop  offset="0.1516" style="stop-color:#D1D100"/>
		<stop  offset="0.3266" style="stop-color:#939300"/>
		<stop  offset="0.4943" style="stop-color:#5E5E00"/>
		<stop  offset="0.6499" style="stop-color:#353500"/>
		<stop  offset="0.7907" style="stop-color:#181800"/>
		<stop  offset="0.9121" style="stop-color:#060600"/>
		<stop  offset="1" style="stop-color:#000000"/>
	</radialGradient>
	<path style="opacity:0.63;fill:url(#SVGID_00000120542820683821090900000008142924664004002194_);" d="M233.4,102.5
		c0.6,1.6-3.2,4.6-8.4,6.5s-10.2,2.3-10.9,0.7c-0.8-1.6,3-4.6,8.4-6.6C227.8,101.1,232.7,100.8,233.4,102.5z"/>
	
		<radialGradient id="SVGID_00000018923462773428987360000012955372873508208005_" cx="2272.5564" cy="-11679.7402" r="38.6952" gradientTransform="matrix(-0.1341 -0.3587 8.157200e-02 -3.053814e-02 1481.2605 564.6343)" gradientUnits="userSpaceOnUse">
		<stop  offset="3.631280e-02" style="stop-color:#FFFF00"/>
		<stop  offset="0.1516" style="stop-color:#D1D100"/>
		<stop  offset="0.3266" style="stop-color:#939300"/>
		<stop  offset="0.4943" style="stop-color:#5E5E00"/>
		<stop  offset="0.6499" style="stop-color:#353500"/>
		<stop  offset="0.7907" style="stop-color:#181800"/>
		<stop  offset="0.9121" style="stop-color:#060600"/>
		<stop  offset="1" style="stop-color:#000000"/>
	</radialGradient>
	<path style="opacity:0.63;fill:url(#SVGID_00000018923462773428987360000012955372873508208005_);" d="M218.3,91.5
		c1.6-0.6,5.4,5.3,8.3,13.2c3,7.9,4.1,15,2.6,15.9c-1.6,0.9-5.3-5-8.4-13.2C217.7,99.2,216.6,92.1,218.3,91.5z"/>
	
		<radialGradient id="SVGID_00000095317827784030204430000012056190620695725201_" cx="3436.3149" cy="-54720.7617" r="38.6485" gradientTransform="matrix(-0.2945 -0.2449 1.032868e-02 -1.244702e-02 1800.9451 266.3398)" gradientUnits="userSpaceOnUse">
		<stop  offset="3.631280e-02" style="stop-color:#FFFF00"/>
		<stop  offset="0.1516" style="stop-color:#D1D100"/>
		<stop  offset="0.3266" style="stop-color:#939300"/>
		<stop  offset="0.4943" style="stop-color:#5E5E00"/>
		<stop  offset="0.6499" style="stop-color:#353500"/>
		<stop  offset="0.7907" style="stop-color:#181800"/>
		<stop  offset="0.9121" style="stop-color:#060600"/>
		<stop  offset="1" style="stop-color:#000000"/>
	</radialGradient>
	<path style="opacity:0.63;fill:url(#SVGID_00000095317827784030204430000012056190620695725201_);" d="M211.8,96.1
		c0.2-0.3,5.6,3.9,12.1,9.3c6.5,5.4,11.8,10.1,11.7,10.5c0,0.4-5.4-3.7-12.1-9.3C216.8,101.1,211.6,96.4,211.8,96.1z"/>
	
		<radialGradient id="SVGID_00000163757595869902523670000011774664235038595504_" cx="1169.9312" cy="-35175.8203" r="38.7133" gradientTransform="matrix(9.239795e-02 -0.3717 1.562838e-02 3.931107e-03 665.3342 679.1788)" gradientUnits="userSpaceOnUse">
		<stop  offset="3.631280e-02" style="stop-color:#FFFF00"/>
		<stop  offset="0.1516" style="stop-color:#D1D100"/>
		<stop  offset="0.3266" style="stop-color:#939300"/>
		<stop  offset="0.4943" style="stop-color:#5E5E00"/>
		<stop  offset="0.6499" style="stop-color:#353500"/>
		<stop  offset="0.7907" style="stop-color:#181800"/>
		<stop  offset="0.9121" style="stop-color:#060600"/>
		<stop  offset="1" style="stop-color:#000000"/>
	</radialGradient>
	<path style="opacity:0.63;fill:url(#SVGID_00000163757595869902523670000011774664235038595504_);" d="M227.4,91
		c0.3,0.1-1.1,6.8-3.1,15c-2,8.2-4,15-4.4,15.1c-0.4,0.2,1-6.5,3.1-15S227.1,90.9,227.4,91z"/>
	
		<radialGradient id="SVGID_00000149341685256847203480000002889721721983476612_" cx="-186.0879" cy="14340.832" r="38.7323" gradientTransform="matrix(0.2457 -9.186690e-02 5.669271e-03 1.506915e-02 188.1807 -126.9707)" gradientUnits="userSpaceOnUse">
		<stop  offset="3.631280e-02" style="stop-color:#FFFF00"/>
		<stop  offset="0.1516" style="stop-color:#D1D100"/>
		<stop  offset="0.3266" style="stop-color:#939300"/>
		<stop  offset="0.4943" style="stop-color:#5E5E00"/>
		<stop  offset="0.6499" style="stop-color:#353500"/>
		<stop  offset="0.7907" style="stop-color:#181800"/>
		<stop  offset="0.9121" style="stop-color:#060600"/>
		<stop  offset="1" style="stop-color:#000000"/>
	</radialGradient>
	<path style="opacity:0.63;fill:url(#SVGID_00000149341685256847203480000002889721721983476612_);" d="M233.7,102.5
		c0.1,0.3-4.2,2.2-9.6,4.2c-5.4,2-10,3.5-10.3,3.2c-0.3-0.2,4-2.1,9.6-4.2C229,103.6,233.6,102.2,233.7,102.5z"/>
	
		<radialGradient id="SVGID_00000170248261041308691790000008838194827710701244_" cx="2276.1714" cy="-53481.8164" r="38.7303" gradientTransform="matrix(-0.1341 -0.3587 1.506915e-02 -5.669271e-03 1335.0736 619.3526)" gradientUnits="userSpaceOnUse">
		<stop  offset="3.631280e-02" style="stop-color:#FFFF00"/>
		<stop  offset="0.1516" style="stop-color:#D1D100"/>
		<stop  offset="0.3266" style="stop-color:#939300"/>
		<stop  offset="0.4943" style="stop-color:#5E5E00"/>
		<stop  offset="0.6499" style="stop-color:#353500"/>
		<stop  offset="0.7907" style="stop-color:#181800"/>
		<stop  offset="0.9121" style="stop-color:#060600"/>
		<stop  offset="1" style="stop-color:#000000"/>
	</radialGradient>
	<path style="opacity:0.63;fill:url(#SVGID_00000170248261041308691790000008838194827710701244_);" d="M218.4,91.4
		c0.3-0.1,2.9,6.2,5.9,14.1c3,7.9,5.2,14.6,5,15c-0.2,0.4-2.9-6-5.9-14.1C220.3,98.3,218.1,91.6,218.4,91.4z"/>
</g>
<g>
	<path class="st1" d="M174,66.9c0,0-3.8,5.3-1.4,6.9c0,0-2.4-1.6-4.1,1.1c0,0,1.7-2.8-0.7-4.4C167.8,70.6,170.2,72.3,174,66.9z"/>
	
		<radialGradient id="SVGID_00000002352594472418912610000006061660025051620005_" cx="-427.7228" cy="270.1093" r="38.6926" gradientTransform="matrix(0.21 0.1445 -4.932232e-02 7.179052e-02 273.4761 114.4445)" gradientUnits="userSpaceOnUse">
		<stop  offset="3.631280e-02" style="stop-color:#FFFF00"/>
		<stop  offset="0.1516" style="stop-color:#D1D100"/>
		<stop  offset="0.3266" style="stop-color:#939300"/>
		<stop  offset="0.4943" style="stop-color:#5E5E00"/>
		<stop  offset="0.6499" style="stop-color:#353500"/>
		<stop  offset="0.7907" style="stop-color:#181800"/>
		<stop  offset="0.9121" style="stop-color:#060600"/>
		<stop  offset="1" style="stop-color:#000000"/>
	</radialGradient>
	<path style="opacity:0.63;fill:url(#SVGID_00000002352594472418912610000006061660025051620005_);" d="M178.8,77.9
		c-1,1.5-5.5,0-10.2-3.2c-4.6-3.2-7.7-7-6.8-8.5c0.9-1.6,5.5-0.2,10.2,3.1C176.8,72.6,179.8,76.5,178.8,77.9z"/>
	
		<radialGradient id="SVGID_00000107590589375147325170000004709304433047925412_" cx="2404.5444" cy="-12116.8477" r="38.6952" gradientTransform="matrix(0.217 -0.3156 7.179052e-02 4.932232e-02 518.3901 1428.5181)" gradientUnits="userSpaceOnUse">
		<stop  offset="3.631280e-02" style="stop-color:#FFFF00"/>
		<stop  offset="0.1516" style="stop-color:#D1D100"/>
		<stop  offset="0.3266" style="stop-color:#939300"/>
		<stop  offset="0.4943" style="stop-color:#5E5E00"/>
		<stop  offset="0.6499" style="stop-color:#353500"/>
		<stop  offset="0.7907" style="stop-color:#181800"/>
		<stop  offset="0.9121" style="stop-color:#060600"/>
		<stop  offset="1" style="stop-color:#000000"/>
	</radialGradient>
	<path style="opacity:0.63;fill:url(#SVGID_00000107590589375147325170000004709304433047925412_);" d="M179.2,59.3
		c1.5,1-1.3,7.4-6.1,14.4c-4.8,7-9.9,12-11.5,11.2c-1.6-0.8,1.1-7.3,6-14.4C172.5,63.3,177.7,58.3,179.2,59.3z"/>
	
		<radialGradient id="SVGID_00000122706239254827585170000011120068324615096474_" cx="3600.2173" cy="-55213.332" r="38.6485" gradientTransform="matrix(3.174518e-02 -0.3817 1.611995e-02 1.325571e-03 946.079 1519.4032)" gradientUnits="userSpaceOnUse">
		<stop  offset="3.631280e-02" style="stop-color:#FFFF00"/>
		<stop  offset="0.1516" style="stop-color:#D1D100"/>
		<stop  offset="0.3266" style="stop-color:#939300"/>
		<stop  offset="0.4943" style="stop-color:#5E5E00"/>
		<stop  offset="0.6499" style="stop-color:#353500"/>
		<stop  offset="0.7907" style="stop-color:#181800"/>
		<stop  offset="0.9121" style="stop-color:#060600"/>
		<stop  offset="1" style="stop-color:#000000"/>
	</radialGradient>
	<path style="opacity:0.63;fill:url(#SVGID_00000122706239254827585170000011120068324615096474_);" d="M171.6,56.6
		c0.3,0,0,6.9-0.7,15.3c-0.7,8.4-1.5,15.4-1.9,15.6c-0.4,0.2-0.1-6.6,0.7-15.3C170.4,63.6,171.3,56.6,171.6,56.6z"/>
	
		<radialGradient id="SVGID_00000168833543683070144530000016839118078793969062_" cx="1222.0404" cy="-38898.1914" r="38.7133" gradientTransform="matrix(0.3575 -0.1374 5.740040e-03 1.505828e-02 -43.2809 825.7064)" gradientUnits="userSpaceOnUse">
		<stop  offset="3.631280e-02" style="stop-color:#FFFF00"/>
		<stop  offset="0.1516" style="stop-color:#D1D100"/>
		<stop  offset="0.3266" style="stop-color:#939300"/>
		<stop  offset="0.4943" style="stop-color:#5E5E00"/>
		<stop  offset="0.6499" style="stop-color:#353500"/>
		<stop  offset="0.7907" style="stop-color:#181800"/>
		<stop  offset="0.9121" style="stop-color:#060600"/>
		<stop  offset="1" style="stop-color:#000000"/>
	</radialGradient>
	<path style="opacity:0.63;fill:url(#SVGID_00000168833543683070144530000016839118078793969062_);" d="M184.8,66.5
		c0.1,0.3-6.2,3-14,6c-7.9,3-14.6,5.3-14.9,5.1c-0.4-0.2,5.9-2.9,14-6C178,68.4,184.7,66.2,184.8,66.5z"/>
	
		<radialGradient id="SVGID_00000046336009200918324820000000138739940370806928_" cx="-330.8434" cy="11201.9619" r="38.7323" gradientTransform="matrix(0.2161 0.1486 -9.095571e-03 1.328498e-02 343.6128 -27.444)" gradientUnits="userSpaceOnUse">
		<stop  offset="3.631280e-02" style="stop-color:#FFFF00"/>
		<stop  offset="0.1516" style="stop-color:#D1D100"/>
		<stop  offset="0.3266" style="stop-color:#939300"/>
		<stop  offset="0.4943" style="stop-color:#5E5E00"/>
		<stop  offset="0.6499" style="stop-color:#353500"/>
		<stop  offset="0.7907" style="stop-color:#181800"/>
		<stop  offset="0.9121" style="stop-color:#060600"/>
		<stop  offset="1" style="stop-color:#000000"/>
	</radialGradient>
	<path style="opacity:0.63;fill:url(#SVGID_00000046336009200918324820000000138739940370806928_);" d="M179,78.2
		c-0.2,0.3-4.2-2.2-9-5.4c-4.8-3.3-8.6-6.2-8.6-6.6c0-0.4,4.1,2.1,9,5.4C175.3,75,179.1,78,179,78.2z"/>
	
		<radialGradient id="SVGID_00000083782567825979610070000000696932577453336510_" cx="2408.3203" cy="-55846.5234" r="38.7303" gradientTransform="matrix(0.217 -0.3156 1.328498e-02 9.095571e-03 389.7408 1340.1208)" gradientUnits="userSpaceOnUse">
		<stop  offset="3.631280e-02" style="stop-color:#FFFF00"/>
		<stop  offset="0.1516" style="stop-color:#D1D100"/>
		<stop  offset="0.3266" style="stop-color:#939300"/>
		<stop  offset="0.4943" style="stop-color:#5E5E00"/>
		<stop  offset="0.6499" style="stop-color:#353500"/>
		<stop  offset="0.7907" style="stop-color:#181800"/>
		<stop  offset="0.9121" style="stop-color:#060600"/>
		<stop  offset="1" style="stop-color:#000000"/>
	</radialGradient>
	<path style="opacity:0.63;fill:url(#SVGID_00000083782567825979610070000000696932577453336510_);" d="M179.3,59.3
		c0.3,0.2-3.4,6-8.2,12.9c-4.8,7-9,12.6-9.4,12.6c-0.4,0,3.2-5.8,8.2-12.9C174.8,64.8,179,59.2,179.3,59.3z"/>
</g>
<g>
	<path class="st1" d="M107.3,110c0,0,2.2,6.2,4.9,5.1c0,0-2.7,1-1.4,4c0,0-1.3-3-4-2C106.7,117.2,109.4,116.3,107.3,110z"/>
	
		<radialGradient id="SVGID_00000047779028845121201270000008676660830409870983_" cx="-712.2808" cy="497.5491" r="38.6926" gradientTransform="matrix(0.2388 -8.921045e-02 3.053814e-02 8.157200e-02 264.2159 11.8463)" gradientUnits="userSpaceOnUse">
		<stop  offset="3.631280e-02" style="stop-color:#FFFF00"/>
		<stop  offset="0.1516" style="stop-color:#D1D100"/>
		<stop  offset="0.3266" style="stop-color:#939300"/>
		<stop  offset="0.4943" style="stop-color:#5E5E00"/>
		<stop  offset="0.6499" style="stop-color:#353500"/>
		<stop  offset="0.7907" style="stop-color:#181800"/>
		<stop  offset="0.9121" style="stop-color:#060600"/>
		<stop  offset="1" style="stop-color:#000000"/>
	</radialGradient>
	<path style="opacity:0.63;fill:url(#SVGID_00000047779028845121201270000008676660830409870983_);" d="M119,112.4
		c0.6,1.6-3.2,4.6-8.4,6.5c-5.3,2-10.2,2.3-10.9,0.7c-0.8-1.6,3-4.6,8.4-6.6C113.5,111,118.4,110.7,119,112.4z"/>
	
		<radialGradient id="SVGID_00000026860209092254908970000008426459309018976644_" cx="2352.948" cy="-12949.5166" r="38.6952" gradientTransform="matrix(-0.1341 -0.3587 8.157200e-02 -3.053814e-02 1481.2605 564.6343)" gradientUnits="userSpaceOnUse">
		<stop  offset="3.631280e-02" style="stop-color:#FFFF00"/>
		<stop  offset="0.1516" style="stop-color:#D1D100"/>
		<stop  offset="0.3266" style="stop-color:#939300"/>
		<stop  offset="0.4943" style="stop-color:#5E5E00"/>
		<stop  offset="0.6499" style="stop-color:#353500"/>
		<stop  offset="0.7907" style="stop-color:#181800"/>
		<stop  offset="0.9121" style="stop-color:#060600"/>
		<stop  offset="1" style="stop-color:#000000"/>
	</radialGradient>
	<path style="opacity:0.63;fill:url(#SVGID_00000026860209092254908970000008426459309018976644_);" d="M103.9,101.4
		c1.6-0.6,5.4,5.3,8.3,13.2s4.1,15,2.6,15.9c-1.6,0.9-5.3-5-8.4-13.2C103.4,109.2,102.3,102.1,103.9,101.4z"/>
	
		<radialGradient id="SVGID_00000140702384363354557040000005953805092645351825_" cx="3649.5256" cy="-59713.3516" r="38.6485" gradientTransform="matrix(-0.2945 -0.2449 1.032868e-02 -1.244702e-02 1800.9451 266.3398)" gradientUnits="userSpaceOnUse">
		<stop  offset="3.631280e-02" style="stop-color:#FFFF00"/>
		<stop  offset="0.1516" style="stop-color:#D1D100"/>
		<stop  offset="0.3266" style="stop-color:#939300"/>
		<stop  offset="0.4943" style="stop-color:#5E5E00"/>
		<stop  offset="0.6499" style="stop-color:#353500"/>
		<stop  offset="0.7907" style="stop-color:#181800"/>
		<stop  offset="0.9121" style="stop-color:#060600"/>
		<stop  offset="1" style="stop-color:#000000"/>
	</radialGradient>
	<path style="opacity:0.63;fill:url(#SVGID_00000140702384363354557040000005953805092645351825_);" d="M97.4,106.1
		c0.2-0.3,5.6,3.9,12.1,9.3c6.5,5.4,11.8,10.1,11.7,10.5c0,0.4-5.4-3.7-12.1-9.3C102.5,111,97.2,106.3,97.4,106.1z"/>
	
		<radialGradient id="SVGID_00000053530229978347870130000001050026563950201484_" cx="1071.9351" cy="-41913.9961" r="38.7133" gradientTransform="matrix(9.239795e-02 -0.3717 1.562838e-02 3.931107e-03 665.3342 679.1788)" gradientUnits="userSpaceOnUse">
		<stop  offset="3.631280e-02" style="stop-color:#FFFF00"/>
		<stop  offset="0.1516" style="stop-color:#D1D100"/>
		<stop  offset="0.3266" style="stop-color:#939300"/>
		<stop  offset="0.4943" style="stop-color:#5E5E00"/>
		<stop  offset="0.6499" style="stop-color:#353500"/>
		<stop  offset="0.7907" style="stop-color:#181800"/>
		<stop  offset="0.9121" style="stop-color:#060600"/>
		<stop  offset="1" style="stop-color:#000000"/>
	</radialGradient>
	<path style="opacity:0.63;fill:url(#SVGID_00000053530229978347870130000001050026563950201484_);" d="M113.1,100.9
		c0.3,0.1-1.1,6.8-3.1,15c-2,8.2-4,15-4.4,15.1c-0.4,0.2,1-6.5,3.1-15C110.8,107.6,112.8,100.9,113.1,100.9z"/>
	
		<radialGradient id="SVGID_00000093880816166717437930000003592995333795789755_" cx="-607.4952" cy="12431.1699" r="38.7323" gradientTransform="matrix(0.2457 -9.186690e-02 5.669271e-03 1.506915e-02 188.1807 -126.9707)" gradientUnits="userSpaceOnUse">
		<stop  offset="3.631280e-02" style="stop-color:#FFFF00"/>
		<stop  offset="0.1516" style="stop-color:#D1D100"/>
		<stop  offset="0.3266" style="stop-color:#939300"/>
		<stop  offset="0.4943" style="stop-color:#5E5E00"/>
		<stop  offset="0.6499" style="stop-color:#353500"/>
		<stop  offset="0.7907" style="stop-color:#181800"/>
		<stop  offset="0.9121" style="stop-color:#060600"/>
		<stop  offset="1" style="stop-color:#000000"/>
	</radialGradient>
	<path style="opacity:0.63;fill:url(#SVGID_00000093880816166717437930000003592995333795789755_);" d="M119.4,112.5
		c0.1,0.3-4.2,2.2-9.6,4.2c-5.4,2-10,3.5-10.3,3.2c-0.3-0.2,4-2.1,9.6-4.2C114.6,113.6,119.2,112.1,119.4,112.5z"/>
	
		<radialGradient id="SVGID_00000135653132140712779770000011054904673442980001_" cx="2357.03" cy="-60351.1797" r="38.7303" gradientTransform="matrix(-0.1341 -0.3587 1.506915e-02 -5.669271e-03 1335.0736 619.3526)" gradientUnits="userSpaceOnUse">
		<stop  offset="3.631280e-02" style="stop-color:#FFFF00"/>
		<stop  offset="0.1516" style="stop-color:#D1D100"/>
		<stop  offset="0.3266" style="stop-color:#939300"/>
		<stop  offset="0.4943" style="stop-color:#5E5E00"/>
		<stop  offset="0.6499" style="stop-color:#353500"/>
		<stop  offset="0.7907" style="stop-color:#181800"/>
		<stop  offset="0.9121" style="stop-color:#060600"/>
		<stop  offset="1" style="stop-color:#000000"/>
	</radialGradient>
	<path style="opacity:0.63;fill:url(#SVGID_00000135653132140712779770000011054904673442980001_);" d="M104,101.4
		c0.3-0.1,2.9,6.2,5.9,14.1c3,7.9,5.2,14.6,5,15c-0.2,0.4-2.9-6-5.9-14.1C106,108.2,103.7,101.5,104,101.4z"/>
</g>
</svg>
