<?xml version="1.0" encoding="utf-8"?>
<!-- Generator: Adobe Illustrator 26.0.2, SVG Export Plug-In . SVG Version: 6.00 Build 0)  -->
<svg version="1.1" id="Layer_1" xmlns="http://www.w3.org/2000/svg" xmlns:xlink="http://www.w3.org/1999/xlink" x="0px" y="0px"
	 viewBox="0 0 96 120" style="enable-background:new 0 0 96 120;" xml:space="preserve">
<style type="text/css">
	.st0{fill:#CB0000;}
</style>
<path d="M72.8,12.9H56.3V8c0-0.3-0.2-0.5-0.5-0.5H40.2c-0.3,0-0.5,0.2-0.5,0.5v4.9H23.2c-0.3,0-0.5,0.2-0.5,0.5V88
	c0,0.3,0.2,0.5,0.5,0.5h49.6c0.3,0,0.5-0.2,0.5-0.5V13.4C73.3,13.1,73.1,12.9,72.8,12.9z M40.7,8.5h14.5v4.4H40.7V8.5z M72.3,87.5
	H23.7V13.9h16.5h15.5h16.5L72.3,87.5L72.3,87.5z"/>
<path class="st0" d="M72.3,87.5H23.7V13.9h16.5h15.5h16.5L72.3,87.5L72.3,87.5z"/>
</svg>
